999
dxfrw 0.5.10
0
SECTION
2
HEADER
9
$ACADVER
1
AC1021
9
$HANDSEED
5
20000
9
$DWGCODEPAGE
3
ANSI_1252
9
$INSBASE
10
0
20
0
30
0
9
$EXTMIN
10
0.234393369444
20
-3.24746677576
30
0
9
$EXTMAX
10
16.3159410299
20
19.6843245312
30
0
9
$LIMMIN
10
0
20
0
9
$LIMMAX
10
43.7963073736
20
42.7442049251
9
$ORTHOMODE
70
0
9
$LTSCALE
40
0.0157480314961
9
$TEXTSTYLE
7
Standard
9
$CLAYER
8
0
9
$DIMASZ
40
0.0708661
9
$DIMLFAC
40
1
9
$DIMSCALE
40
1
9
$DIMEXO
40
0.0625
9
$DIMEXE
40
0.18
9
$DIMTXT
40
0.0708661
9
$DIMTSZ
40
0
9
$DIMAUNIT
70
0
9
$DIMADEC
70
0
9
$DIMLUNIT
70
2
9
$DIMSTYLE
2
2dTranslator Dimension Style
9
$DIMGAP
40
0.09
9
$DIMTIH
70
1
9
$LUNITS
70
2
9
$LUPREC
70
4
9
$AUNITS
70
0
9
$AUPREC
70
0
9
$SPLINESEGS
70
8
9
$GRIDMODE
70
1
9
$SNAPSTYLE
70
0
9
$GRIDUNIT
10
0
20
0
9
$PINSBASE
10
0
20
0
30
0
9
$PLIMMIN
10
0
20
0
9
$PLIMMAX
10
43.7963
20
42.7442
9
$INSUNITS
70
1
9
$PSVPSCALE
40
0
0
ENDSEC
0
SECTION
2
CLASSES
0
ENDSEC
0
SECTION
2
TABLES
0
TABLE
2
VPORT
5
8
330
0
100
AcDbSymbolTable
70
1
0
VPORT
5
31
330
2
100
AcDbSymbolTableRecord
100
AcDbViewportTableRecord
2
*ACTIVE
70
0
10
0
20
0
11
1
21
1
12
17.1165403295
22
10.6300440576
13
0
23
0
14
10
24
10
15
10
25
10
16
0
26
0
36
1
17
0
27
0
37
0
40
25.9459850875
41
1.7525083612
42
50
43
0
44
0
50
0
51
0
71
0
72
100
73
1
74
3
75
0
76
1
77
0
78
0
281
0
65
1
110
0
120
0
130
0
111
1
121
0
131
0
112
0
122
1
132
0
79
0
146
0
348
10020
60
7
61
5
292
1
282
1
141
0
142
0
63
250
421
3358443
0
ENDTAB
0
TABLE
2
LTYPE
5
5
330
0
100
AcDbSymbolTable
70
4
0
LTYPE
5
14
330
5
100
AcDbSymbolTableRecord
100
AcDbLinetypeTableRecord
2
ByBlock
70
0
3

72
65
73
0
40
0
0
LTYPE
5
15
330
5
100
AcDbSymbolTableRecord
100
AcDbLinetypeTableRecord
2
ByLayer
70
0
3

72
65
73
0
40
0
0
LTYPE
5
16
330
5
100
AcDbSymbolTableRecord
100
AcDbLinetypeTableRecord
2
Continuous
70
0
3
Solid line
72
65
73
0
40
0
0
LTYPE
5
32
330
5
100
AcDbSymbolTableRecord
100
AcDbLinetypeTableRecord
2
DOT
70
0
3
Dot . . . . . . . . . . . . . . . . . . . . . .
72
65
73
2
40
6.35
49
0
74
0
49
-6.35
74
0
0
LTYPE
5
33
330
5
100
AcDbSymbolTableRecord
100
AcDbLinetypeTableRecord
2
DOT2
70
0
3
Dot (.5x) .....................................
72
65
73
2
40
3.175
49
0
74
0
49
-3.175
74
0
0
LTYPE
5
34
330
5
100
AcDbSymbolTableRecord
100
AcDbLinetypeTableRecord
2
DOTX2
70
0
3
Dot (2x) .  .  .  .  .  .  .  .  .  .  .  .  .
72
65
73
2
40
12.7
49
0
74
0
49
-12.7
74
0
0
LTYPE
5
35
330
5
100
AcDbSymbolTableRecord
100
AcDbLinetypeTableRecord
2
DASHED
70
0
3
Dot . . . . . . . . . . . . . . . . . . . . . .
72
65
73
2
40
19.05
49
12.7
74
0
49
-6.35
74
0
0
LTYPE
5
36
330
5
100
AcDbSymbolTableRecord
100
AcDbLinetypeTableRecord
2
DASHED2
70
0
3
Dashed (.5x) _ _ _ _ _ _ _ _ _ _ _ _ _ _ _ _ _
72
65
73
2
40
9.525
49
6.35
74
0
49
-3.175
74
0
0
LTYPE
5
37
330
5
100
AcDbSymbolTableRecord
100
AcDbLinetypeTableRecord
2
DASHEDX2
70
0
3
Dashed (2x) ____  ____  ____  ____  ____  ___
72
65
73
2
40
38.1
49
25.4
74
0
49
-12.7
74
0
0
LTYPE
5
38
330
5
100
AcDbSymbolTableRecord
100
AcDbLinetypeTableRecord
2
DASHDOT
70
0
3
Dash dot __ . __ . __ . __ . __ . __ . __ . __
72
65
73
4
40
25.4
49
12.7
74
0
49
-6.35
74
0
49
0
74
0
49
-6.35
74
0
0
LTYPE
5
39
330
5
100
AcDbSymbolTableRecord
100
AcDbLinetypeTableRecord
2
DASHDOT2
70
0
3
Dash dot (.5x) _._._._._._._._._._._._._._._.
72
65
73
4
40
12.7
49
6.35
74
0
49
-3.175
74
0
49
0
74
0
49
-3.175
74
0
0
LTYPE
5
3A
330
5
100
AcDbSymbolTableRecord
100
AcDbLinetypeTableRecord
2
DASHDOTX2
70
0
3
Dash dot (2x) ____  .  ____  .  ____  .  ___
72
65
73
4
40
50.8
49
25.4
74
0
49
-12.7
74
0
49
0
74
0
49
-12.7
74
0
0
LTYPE
5
3B
330
5
100
AcDbSymbolTableRecord
100
AcDbLinetypeTableRecord
2
DIVIDE
70
0
3
Divide ____ . . ____ . . ____ . . ____ . . ____
72
65
73
6
40
31.75
49
12.7
74
0
49
-6.35
74
0
49
0
74
0
49
-6.35
74
0
49
0
74
0
49
-6.35
74
0
0
LTYPE
5
3C
330
5
100
AcDbSymbolTableRecord
100
AcDbLinetypeTableRecord
2
DIVIDE2
70
0
3
Divide (.5x) __..__..__..__..__..__..__..__.._
72
65
73
6
40
15.875
49
6.35
74
0
49
-3.175
74
0
49
0
74
0
49
-3.175
74
0
49
0
74
0
49
-3.175
74
0
0
LTYPE
5
3D
330
5
100
AcDbSymbolTableRecord
100
AcDbLinetypeTableRecord
2
DIVIDEX2
70
0
3
Divide (2x) ________  .  .  ________  .  .  _
72
65
73
6
40
63.5
49
25.4
74
0
49
-12.7
74
0
49
0
74
0
49
-12.7
74
0
49
0
74
0
49
-12.7
74
0
0
LTYPE
5
3E
330
5
100
AcDbSymbolTableRecord
100
AcDbLinetypeTableRecord
2
BORDER
70
0
3
Border __ __ . __ __ . __ __ . __ __ . __ __ .
72
65
73
6
40
44.45
49
12.7
74
0
49
-6.35
74
0
49
12.7
74
0
49
-6.35
74
0
49
0
74
0
49
-6.35
74
0
0
LTYPE
5
3F
330
5
100
AcDbSymbolTableRecord
100
AcDbLinetypeTableRecord
2
BORDER2
70
0
3
Border (.5x) __.__.__.__.__.__.__.__.__.__.__.
72
65
73
6
40
22.225
49
6.35
74
0
49
-3.175
74
0
49
6.35
74
0
49
-3.175
74
0
49
0
74
0
49
-3.175
74
0
0
LTYPE
5
40
330
5
100
AcDbSymbolTableRecord
100
AcDbLinetypeTableRecord
2
BORDERX2
70
0
3
Border (2x) ____  ____  .  ____  ____  .  ___
72
65
73
6
40
88.9
49
25.4
74
0
49
-12.7
74
0
49
25.4
74
0
49
-12.7
74
0
49
0
74
0
49
-12.7
74
0
0
LTYPE
5
41
330
5
100
AcDbSymbolTableRecord
100
AcDbLinetypeTableRecord
2
CENTER
70
0
3
Center ____ _ ____ _ ____ _ ____ _ ____ _ ____
72
65
73
4
40
50.8
49
31.75
74
0
49
-6.35
74
0
49
6.35
74
0
49
-6.35
74
0
0
LTYPE
5
42
330
5
100
AcDbSymbolTableRecord
100
AcDbLinetypeTableRecord
2
CENTER2
70
0
3
Center (.5x) ___ _ ___ _ ___ _ ___ _ ___ _ ___
72
65
73
4
40
28.575
49
19.05
74
0
49
-3.175
74
0
49
3.175
74
0
49
-3.175
74
0
0
LTYPE
5
43
330
5
100
AcDbSymbolTableRecord
100
AcDbLinetypeTableRecord
2
CENTERX2
70
0
3
Center (2x) ________  __  ________  __  _____
72
65
73
4
40
101.6
49
63.5
74
0
49
-12.7
74
0
49
12.7
74
0
49
-12.7
74
0
0
ENDTAB
0
TABLE
2
LAYER
5
2
330
0
100
AcDbSymbolTable
70
1
0
LAYER
5
10
330
2
100
AcDbSymbolTableRecord
100
AcDbLayerTableRecord
2
0
70
0
62
7
6
CONTINUOUS
370
-3
390
F
0
LAYER
5
44
330
2
100
AcDbSymbolTableRecord
100
AcDbLayerTableRecord
2
IV_ARC_CENTERS
70
0
62
7
6
CONTINUOUS
370
100
390
F
0
LAYER
5
45
330
2
100
AcDbSymbolTableRecord
100
AcDbLayerTableRecord
2
IV_OUTER_PROFILE
70
0
62
7
6
CONTINUOUS
370
100
390
F
0
LAYER
5
46
330
2
100
AcDbSymbolTableRecord
100
AcDbLayerTableRecord
2
IV_INTERIOR_PROFILES
70
0
62
7
6
CONTINUOUS
370
100
390
F
0
LAYER
5
47
330
2
100
AcDbSymbolTableRecord
100
AcDbLayerTableRecord
2
IV_FEATURE_PROFILES
70
0
62
7
6
CONTINUOUS
370
100
390
F
0
ENDTAB
0
TABLE
2
STYLE
5
3
330
0
100
AcDbSymbolTable
70
3
0
STYLE
5
48
330
2
100
AcDbSymbolTableRecord
100
AcDbTextStyleTableRecord
2
Standard
70
0
40
0
41
1
50
0
71
0
42
1
3
txt
4

0
ENDTAB
0
TABLE
2
VIEW
5
6
330
0
100
AcDbSymbolTable
70
0
0
ENDTAB
0
TABLE
2
UCS
5
7
330
0
100
AcDbSymbolTable
70
0
0
ENDTAB
0
TABLE
2
APPID
5
9
330
0
100
AcDbSymbolTable
70
1
0
APPID
5
12
330
9
100
AcDbSymbolTableRecord
100
AcDbRegAppTableRecord
2
ACAD
70
0
0
ENDTAB
0
TABLE
2
DIMSTYLE
5
A
330
0
100
AcDbSymbolTable
70
1
100
AcDbDimStyleTable
71
1
0
DIMSTYLE
105
49
330
A
100
AcDbSymbolTableRecord
100
AcDbDimStyleTableRecord
2
Standard
70
0
40
1
41
0.0708661
42
0.0625
43
0.38
44
0.18
45
0
46
0
47
0
48
0
140
0.0708661
141
0.09
142
0
143
25.4
144
1
145
0
146
1
147
0.09
148
0
71
0
72
0
73
0
74
1
75
0
76
0
77
0
78
0
79
0
170
0
171
2
172
0
173
0
174
0
175
0
176
0
177
0
178
0
179
0
271
4
272
4
273
2
274
2
275
0
276
0
277
2
278
46
279
0
280
0
281
0
282
0
283
1
284
0
285
0
286
0
288
0
289
3
340
Standard
341

371
-2
372
-2
0
ENDTAB
0
TABLE
2
BLOCK_RECORD
5
1
330
0
100
AcDbSymbolTable
70
2
0
BLOCK_RECORD
5
1F
330
1
100
AcDbSymbolTableRecord
100
AcDbBlockTableRecord
2
*Model_Space
70
0
280
1
281
0
0
BLOCK_RECORD
5
1E
330
1
100
AcDbSymbolTableRecord
100
AcDbBlockTableRecord
2
*Paper_Space
70
0
280
1
281
0
0
ENDTAB
0
ENDSEC
0
SECTION
2
BLOCKS
0
BLOCK
5
20
330
1F
100
AcDbEntity
8
0
100
AcDbBlockBegin
2
*Model_Space
70
0
10
0
20
0
30
0
3
*Model_Space
1

0
ENDBLK
5
21
330
1F
100
AcDbEntity
8
0
100
AcDbBlockEnd
0
BLOCK
5
1C
330
1B
100
AcDbEntity
8
0
100
AcDbBlockBegin
2
*Paper_Space
70
0
10
0
20
0
30
0
3
*Paper_Space
1

0
ENDBLK
5
1D
330
1F
100
AcDbEntity
8
0
100
AcDbBlockEnd
0
ENDSEC
0
SECTION
2
ENTITIES
0
ARC
5
4A
100
AcDbEntity
8
IV_OUTER_PROFILE
6
CONTINUOUS
62
7
370
25
100
AcDbCircle
10
3.31594102993
20
3.21862246235
40
3
100
AcDbArc
50
180
51
270
0
LINE
5
4B
100
AcDbEntity
8
IV_OUTER_PROFILE
6
CONTINUOUS
62
7
370
25
100
AcDbLine
10
3.31594102993
20
0.218622462348
11
13.3159410299
21
0.218622462348
0
ARC
5
4C
100
AcDbEntity
8
IV_OUTER_PROFILE
6
CONTINUOUS
62
7
370
25
100
AcDbCircle
10
13.3159410299
20
3.21862246235
40
3
100
AcDbArc
50
270
51
0
0
LINE
5
4D
100
AcDbEntity
8
IV_OUTER_PROFILE
6
CONTINUOUS
62
7
370
25
100
AcDbLine
10
16.3159410299
20
3.21862246235
11
16.3159410299
21
15.2186224623
0
LINE
5
4E
100
AcDbEntity
8
IV_OUTER_PROFILE
6
CONTINUOUS
62
7
370
25
100
AcDbLine
10
15.3159410299
20
16.2186224623
11
1.31594102993
21
16.2186224623
0
LINE
5
4F
100
AcDbEntity
8
IV_OUTER_PROFILE
6
CONTINUOUS
62
7
370
25
100
AcDbLine
10
0.31594102993
20
15.2186224623
11
0.31594102993
21
3.21862246235
0
LINE
5
50
100
AcDbEntity
8
IV_INTERIOR_PROFILES
6
CONTINUOUS
62
7
370
25
100
AcDbLine
10
1.31790953387
20
3.96862246235
11
1.31790953387
21
5.96862246235
0
LINE
5
51
100
AcDbEntity
8
IV_INTERIOR_PROFILES
6
CONTINUOUS
62
7
370
25
100
AcDbLine
10
1.31790953387
20
5.96862246235
11
1.49556701418
21
5.96862246235
0
LINE
5
52
100
AcDbEntity
8
IV_INTERIOR_PROFILES
6
CONTINUOUS
62
7
370
25
100
AcDbLine
10
1.49556701418
20
5.96862246235
11
1.49556701418
21
3.96862246235
0
LINE
5
53
100
AcDbEntity
8
IV_INTERIOR_PROFILES
6
CONTINUOUS
62
7
370
25
100
AcDbLine
10
1.49556701418
20
3.96862246235
11
1.31790953387
21
3.96862246235
0
LINE
5
54
100
AcDbEntity
8
IV_INTERIOR_PROFILES
6
CONTINUOUS
62
7
370
25
100
AcDbLine
10
15.1363150457
20
3.96862246235
11
15.1363150457
21
5.96862246235
0
LINE
5
55
100
AcDbEntity
8
IV_INTERIOR_PROFILES
6
CONTINUOUS
62
7
370
25
100
AcDbLine
10
15.1363150457
20
5.96862246235
11
15.313972526
21
5.96862246235
0
LINE
5
56
100
AcDbEntity
8
IV_INTERIOR_PROFILES
6
CONTINUOUS
62
7
370
25
100
AcDbLine
10
15.313972526
20
5.96862246235
11
15.313972526
21
3.96862246235
0
LINE
5
57
100
AcDbEntity
8
IV_INTERIOR_PROFILES
6
CONTINUOUS
62
7
370
25
100
AcDbLine
10
15.313972526
20
3.96862246235
11
15.1363150457
21
3.96862246235
0
LINE
5
58
100
AcDbEntity
8
IV_INTERIOR_PROFILES
6
CONTINUOUS
62
7
370
25
100
AcDbLine
10
1.31790953387
20
11.9686224623
11
1.31790953387
21
13.9686224623
0
LINE
5
59
100
AcDbEntity
8
IV_INTERIOR_PROFILES
6
CONTINUOUS
62
7
370
25
100
AcDbLine
10
1.31790953387
20
13.9686224623
11
1.49556701418
21
13.9686224623
0
LINE
5
5A
100
AcDbEntity
8
IV_INTERIOR_PROFILES
6
CONTINUOUS
62
7
370
25
100
AcDbLine
10
1.49556701418
20
13.9686224623
11
1.49556701418
21
11.9686224623
0
LINE
5
5B
100
AcDbEntity
8
IV_INTERIOR_PROFILES
6
CONTINUOUS
62
7
370
25
100
AcDbLine
10
1.49556701418
20
11.9686224623
11
1.31790953387
21
11.9686224623
0
LINE
5
5C
100
AcDbEntity
8
IV_INTERIOR_PROFILES
6
CONTINUOUS
62
7
370
25
100
AcDbLine
10
15.1363150457
20
11.9686224623
11
15.1363150457
21
13.9686224623
0
LINE
5
5D
100
AcDbEntity
8
IV_INTERIOR_PROFILES
6
CONTINUOUS
62
7
370
25
100
AcDbLine
10
15.1363150457
20
13.9686224623
11
15.313972526
21
13.9686224623
0
LINE
5
5E
100
AcDbEntity
8
IV_INTERIOR_PROFILES
6
CONTINUOUS
62
7
370
25
100
AcDbLine
10
15.313972526
20
13.9686224623
11
15.313972526
21
11.9686224623
0
LINE
5
5F
100
AcDbEntity
8
IV_INTERIOR_PROFILES
6
CONTINUOUS
62
7
370
25
100
AcDbLine
10
15.313972526
20
11.9686224623
11
15.1363150457
21
11.9686224623
0
ARC
5
60
100
AcDbEntity
8
IV_INTERIOR_PROFILES
6
CONTINUOUS
62
7
370
25
100
AcDbCircle
10
9.12844102993
20
11.0311224623
40
0.1875
100
AcDbArc
50
0
51
90
0
LINE
5
61
100
AcDbEntity
8
IV_INTERIOR_PROFILES
6
CONTINUOUS
62
7
370
25
100
AcDbLine
10
9.12844102993
20
10.5936224623
11
7.50344102993
21
10.5936224623
0
ARC
5
62
100
AcDbEntity
8
IV_INTERIOR_PROFILES
6
CONTINUOUS
62
7
370
25
100
AcDbCircle
10
7.50344102993
20
10.7811224623
40
0.1875
100
AcDbArc
50
180
51
270
0
LINE
5
63
100
AcDbEntity
8
IV_INTERIOR_PROFILES
6
CONTINUOUS
62
7
370
25
100
AcDbLine
10
7.50344102993
20
11.2186224623
11
9.12844102993
21
11.2186224623
0
LINE
5
64
100
AcDbEntity
8
IV_INTERIOR_PROFILES
6
CONTINUOUS
62
7
370
25
100
AcDbLine
10
9.31594102993
20
11.0311224623
11
9.31594102993
21
10.7811224623
0
ARC
5
65
100
AcDbEntity
8
IV_INTERIOR_PROFILES
6
CONTINUOUS
62
7
370
25
100
AcDbCircle
10
9.12844102993
20
10.7811224623
40
0.1875
100
AcDbArc
50
270
51
0
0
LINE
5
66
100
AcDbEntity
8
IV_INTERIOR_PROFILES
6
CONTINUOUS
62
7
370
25
100
AcDbLine
10
7.31594102993
20
10.7811224623
11
7.31594102993
21
11.0311224623
0
ARC
5
67
100
AcDbEntity
8
IV_INTERIOR_PROFILES
6
CONTINUOUS
62
7
370
25
100
AcDbCircle
10
7.50344102993
20
11.0311224623
40
0.1875
100
AcDbArc
50
90
51
180
0
CIRCLE
5
68
100
AcDbEntity
8
IV_FEATURE_PROFILES
6
CONTINUOUS
62
7
370
25
100
AcDbCircle
10
7.25344102993
20
1.71862246235
40
0.125
0
CIRCLE
5
69
100
AcDbEntity
8
IV_FEATURE_PROFILES
6
CONTINUOUS
62
7
370
25
100
AcDbCircle
10
9.37844102993
20
2.71862246235
40
0.125
0
CIRCLE
5
6A
100
AcDbEntity
8
IV_FEATURE_PROFILES
6
CONTINUOUS
62
7
370
25
100
AcDbCircle
10
9.37844102993
20
1.71862246235
40
0.125
0
CIRCLE
5
6B
100
AcDbEntity
8
IV_FEATURE_PROFILES
6
CONTINUOUS
62
7
370
25
100
AcDbCircle
10
7.25344102993
20
2.71862246235
40
0.125
0
LINE
5
6C
100
AcDbEntity
8
IV_INTERIOR_PROFILES
6
CONTINUOUS
62
7
370
25
100
AcDbLine
10
8.81594102993
20
12.7186224623
11
8.81594102993
21
11.7186224623
0
LINE
5
6D
100
AcDbEntity
8
IV_INTERIOR_PROFILES
6
CONTINUOUS
62
7
370
25
100
AcDbLine
10
8.81594102993
20
11.7186224623
11
7.81594102993
21
11.7186224623
0
LINE
5
6E
100
AcDbEntity
8
IV_INTERIOR_PROFILES
6
CONTINUOUS
62
7
370
25
100
AcDbLine
10
7.81594102993
20
11.7186224623
11
7.81594102993
21
12.7186224623
0
LINE
5
6F
100
AcDbEntity
8
IV_INTERIOR_PROFILES
6
CONTINUOUS
62
7
370
25
100
AcDbLine
10
7.81594102993
20
12.7186224623
11
8.81594102993
21
12.7186224623
0
CIRCLE
5
70
100
AcDbEntity
8
IV_FEATURE_PROFILES
6
CONTINUOUS
62
7
370
25
100
AcDbCircle
10
9.31594102993
20
12.2186224623
40
0.125
0
CIRCLE
5
71
100
AcDbEntity
8
IV_FEATURE_PROFILES
6
CONTINUOUS
62
7
370
25
100
AcDbCircle
10
7.31594102993
20
12.2186224623
40
0.125
0
CIRCLE
5
72
100
AcDbEntity
8
IV_FEATURE_PROFILES
6
CONTINUOUS
62
7
370
25
100
AcDbCircle
10
9.10094102993
20
13.4336224623
40
0.0625
0
CIRCLE
5
73
100
AcDbEntity
8
IV_FEATURE_PROFILES
6
CONTINUOUS
62
7
370
25
100
AcDbCircle
10
9.10094102993
20
15.0036224623
40
0.0625
0
CIRCLE
5
74
100
AcDbEntity
8
IV_FEATURE_PROFILES
6
CONTINUOUS
62
7
370
25
100
AcDbCircle
10
7.53094102993
20
15.0036224623
40
0.0625
0
CIRCLE
5
75
100
AcDbEntity
8
IV_FEATURE_PROFILES
6
CONTINUOUS
62
7
370
25
100
AcDbCircle
10
7.53094102993
20
13.4336224623
40
0.0625
0
CIRCLE
5
76
100
AcDbEntity
8
IV_FEATURE_PROFILES
6
CONTINUOUS
62
7
370
25
100
AcDbCircle
10
14.8863150457
20
8.96862246235
40
0.0625
0
CIRCLE
5
77
100
AcDbEntity
8
IV_FEATURE_PROFILES
6
CONTINUOUS
62
7
370
25
100
AcDbCircle
10
1.74556701418
20
12.9686224623
40
0.0625
0
CIRCLE
5
78
100
AcDbEntity
8
IV_FEATURE_PROFILES
6
CONTINUOUS
62
7
370
25
100
AcDbCircle
10
12.1284410299
20
14.2889964781
40
0.0625
0
CIRCLE
5
79
100
AcDbEntity
8
IV_FEATURE_PROFILES
6
CONTINUOUS
62
7
370
25
100
AcDbCircle
10
14.8863150457
20
4.96862246235
40
0.0625
0
CIRCLE
5
7A
100
AcDbEntity
8
IV_FEATURE_PROFILES
6
CONTINUOUS
62
7
370
25
100
AcDbCircle
10
14.8863150457
20
12.9686224623
40
0.0625
0
CIRCLE
5
7B
100
AcDbEntity
8
IV_FEATURE_PROFILES
6
CONTINUOUS
62
7
370
25
100
AcDbCircle
10
4.50344102993
20
14.2889964781
40
0.0625
0
CIRCLE
5
7C
100
AcDbEntity
8
IV_FEATURE_PROFILES
6
CONTINUOUS
62
7
370
25
100
AcDbCircle
10
1.74556701418
20
4.96862246235
40
0.0625
0
CIRCLE
5
7D
100
AcDbEntity
8
IV_FEATURE_PROFILES
6
CONTINUOUS
62
7
370
25
100
AcDbCircle
10
1.74556701418
20
8.96862246235
40
0.0625
0
LINE
5
7E
100
AcDbEntity
8
IV_INTERIOR_PROFILES
6
CONTINUOUS
62
7
370
25
100
AcDbLine
10
11.1284410299
20
6.21665395841
11
11.1284410299
21
6.39431143873
0
LINE
5
7F
100
AcDbEntity
8
IV_INTERIOR_PROFILES
6
CONTINUOUS
62
7
370
25
100
AcDbLine
10
11.1284410299
20
6.39431143873
11
13.1284410299
21
6.39431143873
0
LINE
5
80
100
AcDbEntity
8
IV_INTERIOR_PROFILES
6
CONTINUOUS
62
7
370
25
100
AcDbLine
10
13.1284410299
20
6.39431143873
11
13.1284410299
21
6.21665395841
0
LINE
5
81
100
AcDbEntity
8
IV_INTERIOR_PROFILES
6
CONTINUOUS
62
7
370
25
100
AcDbLine
10
13.1284410299
20
6.21665395841
11
11.1284410299
21
6.21665395841
0
LINE
5
82
100
AcDbEntity
8
IV_INTERIOR_PROFILES
6
CONTINUOUS
62
7
370
25
100
AcDbLine
10
3.50344102993
20
6.21665395841
11
3.50344102993
21
6.39431143873
0
LINE
5
83
100
AcDbEntity
8
IV_INTERIOR_PROFILES
6
CONTINUOUS
62
7
370
25
100
AcDbLine
10
3.50344102993
20
6.39431143873
11
5.50344102993
21
6.39431143873
0
LINE
5
84
100
AcDbEntity
8
IV_INTERIOR_PROFILES
6
CONTINUOUS
62
7
370
25
100
AcDbLine
10
5.50344102993
20
6.39431143873
11
5.50344102993
21
6.21665395841
0
LINE
5
85
100
AcDbEntity
8
IV_INTERIOR_PROFILES
6
CONTINUOUS
62
7
370
25
100
AcDbLine
10
5.50344102993
20
6.21665395841
11
3.50344102993
21
6.21665395841
0
CIRCLE
5
86
100
AcDbEntity
8
IV_FEATURE_PROFILES
6
CONTINUOUS
62
7
370
25
100
AcDbCircle
10
12.1284410299
20
6.64431143873
40
0.0625
0
CIRCLE
5
87
100
AcDbEntity
8
IV_FEATURE_PROFILES
6
CONTINUOUS
62
7
370
25
100
AcDbCircle
10
4.50344102993
20
6.64431143873
40
0.0625
0
ARC
5
88
100
AcDbEntity
8
IV_OUTER_PROFILE
6
CONTINUOUS
62
7
370
25
100
AcDbCircle
10
1.31594102993
20
15.2186224623
40
1
100
AcDbArc
50
90
51
180
0
ARC
5
89
100
AcDbEntity
8
IV_OUTER_PROFILE
6
CONTINUOUS
62
7
370
25
100
AcDbCircle
10
15.3159410299
20
15.2186224623
40
1
100
AcDbArc
50
0
51
90
0
ARC
5
8A
100
AcDbEntity
8
IV_OUTER_PROFILE
6
CONTINUOUS
62
7
370
25
100
AcDbCircle
10
3.60698224543
20
19.4343245312
40
0.25
100
AcDbArc
50
22.9584116919
51
90
0
LINE
5
8B
100
AcDbEntity
8
IV_OUTER_PROFILE
6
CONTINUOUS
62
7
370
25
100
AcDbLine
10
3.60698224543
20
19.6843245312
11
1.60698224543
21
19.6843245312
0
ARC
5
8C
100
AcDbEntity
8
IV_OUTER_PROFILE
6
CONTINUOUS
62
7
370
25
100
AcDbCircle
10
1.60698224543
20
19.4343245312
40
0.25
100
AcDbArc
50
90
51
157.041588305
0
LINE
5
8D
100
AcDbEntity
8
IV_INTERIOR_PROFILES
6
CONTINUOUS
62
7
370
25
100
AcDbLine
10
3.10698224543
20
17.9343245312
11
2.10698224543
21
17.9343245312
0
LINE
5
8E
100
AcDbEntity
8
IV_INTERIOR_PROFILES
6
CONTINUOUS
62
7
370
25
100
AcDbLine
10
2.10698224543
20
17.9343245312
11
2.10698224543
21
18.9343245312
0
LINE
5
8F
100
AcDbEntity
8
IV_INTERIOR_PROFILES
6
CONTINUOUS
62
7
370
25
100
AcDbLine
10
2.10698224543
20
18.9343245312
11
3.10698224543
21
18.9343245312
0
LINE
5
90
100
AcDbEntity
8
IV_INTERIOR_PROFILES
6
CONTINUOUS
62
7
370
25
100
AcDbLine
10
3.10698224543
20
18.9343245312
11
3.10698224543
21
17.9343245312
0
CIRCLE
5
91
100
AcDbEntity
8
IV_FEATURE_PROFILES
6
CONTINUOUS
62
7
370
25
100
AcDbCircle
10
3.60698224543
20
17.4343245312
40
0.0625
0
CIRCLE
5
92
100
AcDbEntity
8
IV_FEATURE_PROFILES
6
CONTINUOUS
62
7
370
25
100
AcDbCircle
10
1.60698224543
20
19.4343245312
40
0.0625
0
CIRCLE
5
93
100
AcDbEntity
8
IV_FEATURE_PROFILES
6
CONTINUOUS
62
7
370
25
100
AcDbCircle
10
3.60698224543
20
19.4343245312
40
0.0625
0
CIRCLE
5
94
100
AcDbEntity
8
IV_FEATURE_PROFILES
6
CONTINUOUS
62
7
370
25
100
AcDbCircle
10
1.60698224543
20
17.4343245312
40
0.0625
0
LINE
5
95
100
AcDbEntity
8
IV_OUTER_PROFILE
6
CONTINUOUS
62
7
370
25
100
AcDbLine
10
3.83717930149
20
19.5318402498
11
4.95976817751
21
16.8818402498
0
LINE
5
96
100
AcDbEntity
8
IV_OUTER_PROFILE
6
CONTINUOUS
62
7
370
25
100
AcDbLine
10
0.254196313381
20
16.8818402498
11
1.3767851894
21
19.5318402498
0
ARC
5
97
100
AcDbEntity
8
IV_OUTER_PROFILE
6
CONTINUOUS
62
7
370
25
100
AcDbCircle
10
0.484393369444
20
16.7843245312
40
0.25
100
AcDbArc
50
157.041588308
51
270
0
LINE
5
98
100
AcDbEntity
8
IV_OUTER_PROFILE
6
CONTINUOUS
62
7
370
25
100
AcDbLine
10
4.72957112145
20
16.5343245312
11
0.484393369444
21
16.5343245312
0
ARC
5
99
100
AcDbEntity
8
IV_OUTER_PROFILE
6
CONTINUOUS
62
7
370
25
100
AcDbCircle
10
4.72957112145
20
16.7843245312
40
0.25
100
AcDbArc
50
270
51
22.9584116919
0
LINE
5
9A
100
AcDbEntity
8
IV_OUTER_PROFILE
6
CONTINUOUS
62
7
370
25
100
AcDbLine
10
6.45952887663
20
18.569972503
11
6.45952887663
21
16.569972503
0
LINE
5
9B
100
AcDbEntity
8
IV_OUTER_PROFILE
6
CONTINUOUS
62
7
370
25
100
AcDbLine
10
5.20952887663
20
18.569972503
11
6.45952887663
21
18.569972503
0
LINE
5
9C
100
AcDbEntity
8
IV_OUTER_PROFILE
6
CONTINUOUS
62
7
370
25
100
AcDbLine
10
5.45952887663
20
16.569972503
11
5.20952887663
21
18.569972503
0
LINE
5
9D
100
AcDbEntity
8
IV_OUTER_PROFILE
6
CONTINUOUS
62
7
370
25
100
AcDbLine
10
6.45952887663
20
16.569972503
11
5.45952887663
21
16.569972503
0
CIRCLE
5
9E
100
AcDbEntity
8
IV_INTERIOR_PROFILES
6
CONTINUOUS
62
7
370
25
100
AcDbCircle
10
5.95952887663
20
17.069972503
40
0.125
0
CIRCLE
5
9F
100
AcDbEntity
8
IV_INTERIOR_PROFILES
6
CONTINUOUS
62
7
370
25
100
AcDbCircle
10
5.95952887663
20
18.069972503
40
0.125
0
LINE
5
A0
100
AcDbEntity
8
IV_OUTER_PROFILE
6
CONTINUOUS
62
7
370
25
100
AcDbLine
10
7.12089197932
20
18.569972503
11
7.12089197932
21
16.569972503
0
LINE
5
A1
100
AcDbEntity
8
IV_OUTER_PROFILE
6
CONTINUOUS
62
7
370
25
100
AcDbLine
10
8.37089197932
20
18.569972503
11
7.12089197932
21
18.569972503
0
LINE
5
A2
100
AcDbEntity
8
IV_OUTER_PROFILE
6
CONTINUOUS
62
7
370
25
100
AcDbLine
10
8.12089197932
20
16.569972503
11
8.37089197932
21
18.569972503
0
LINE
5
A3
100
AcDbEntity
8
IV_OUTER_PROFILE
6
CONTINUOUS
62
7
370
25
100
AcDbLine
10
7.12089197932
20
16.569972503
11
8.12089197932
21
16.569972503
0
CIRCLE
5
A4
100
AcDbEntity
8
IV_INTERIOR_PROFILES
6
CONTINUOUS
62
7
370
25
100
AcDbCircle
10
7.62089197932
20
17.069972503
40
0.125
0
CIRCLE
5
A5
100
AcDbEntity
8
IV_INTERIOR_PROFILES
6
CONTINUOUS
62
7
370
25
100
AcDbCircle
10
7.62089197932
20
18.069972503
40
0.125
0
ENDSEC
0
SECTION
2
OBJECTS
0
DICTIONARY
5
C
330
0
100
AcDbDictionary
281
1
3
ACAD_GROUP
350
D
0
DICTIONARY
5
D
330
C
100
AcDbDictionary
281
1
0
ENDSEC
0
EOF
