999
dxfrw 0.5.10
0
SECTION
2
HEADER
9
$ACADVER
1
AC1021
9
$HANDSEED
5
20000
9
$DWGCODEPAGE
3
ANSI_1252
9
$INSBASE
10
0
20
0
30
0
9
$EXTMIN
10
0.050950896101
20
0.0467106659619
30
0
9
$EXTMAX
10
9.46681012927
20
7.80425529281
30
0
9
$LIMMIN
10
0
20
0
9
$LIMMAX
10
3.88533009703
20
1.15533009703
9
$ORTHOMODE
70
0
9
$LTSCALE
40
1
9
$TEXTSTYLE
7
Standard
9
$CLAYER
8
0
9
$DIMASZ
40
0.0708661
9
$DIMLFAC
40
1
9
$DIMSCALE
40
1
9
$DIMEXO
40
0.0625
9
$DIMEXE
40
0.18
9
$DIMTXT
40
0.0708661
9
$DIMTSZ
40
0
9
$DIMAUNIT
70
0
9
$DIMADEC
70
0
9
$DIMLUNIT
70
2
9
$DIMSTYLE
2
Standard
9
$DIMGAP
40
0.09
9
$DIMTIH
70
1
9
$LUNITS
70
2
9
$LUPREC
70
4
9
$AUNITS
70
0
9
$AUPREC
70
0
9
$SPLINESEGS
70
8
9
$GRIDMODE
70
1
9
$SNAPSTYLE
70
0
9
$GRIDUNIT
10
0
20
0
9
$PINSBASE
10
0
20
0
30
0
9
$PLIMMIN
10
0
20
0
9
$PLIMMAX
10
3.8853364
20
1.15532916
9
$INSUNITS
70
1
9
$PSVPSCALE
40
0
0
ENDSEC
0
SECTION
2
CLASSES
0
ENDSEC
0
SECTION
2
TABLES
0
TABLE
2
VPORT
5
8
330
0
100
AcDbSymbolTable
70
1
0
VPORT
5
31
330
2
100
AcDbSymbolTableRecord
100
AcDbViewportTableRecord
2
*ACTIVE
70
0
10
0
20
0
11
1
21
1
12
7.42357962025
22
3.79064422187
13
0
23
0
14
10
24
10
15
10
25
10
16
0
26
0
36
1
17
0
27
0
37
0
40
8.26844831755
41
2.14032697548
42
50
43
0
44
0
50
0
51
0
71
0
72
100
73
1
74
3
75
0
76
1
77
0
78
0
281
0
65
1
110
0
120
0
130
0
111
1
121
0
131
0
112
0
122
1
132
0
79
0
146
0
348
10020
60
7
61
5
292
1
282
1
141
0
142
0
63
250
421
3358443
0
ENDTAB
0
TABLE
2
LTYPE
5
5
330
0
100
AcDbSymbolTable
70
4
0
LTYPE
5
14
330
5
100
AcDbSymbolTableRecord
100
AcDbLinetypeTableRecord
2
ByBlock
70
0
3

72
65
73
0
40
0
0
LTYPE
5
15
330
5
100
AcDbSymbolTableRecord
100
AcDbLinetypeTableRecord
2
ByLayer
70
0
3

72
65
73
0
40
0
0
LTYPE
5
16
330
5
100
AcDbSymbolTableRecord
100
AcDbLinetypeTableRecord
2
Continuous
70
0
3
Solid line
72
65
73
0
40
0
0
LTYPE
5
32
330
5
100
AcDbSymbolTableRecord
100
AcDbLinetypeTableRecord
2
DOT
70
0
3
Dot . . . . . . . . . . . . . . . . . . . . . .
72
65
73
2
40
6.35
49
0
74
0
49
-6.35
74
0
0
LTYPE
5
33
330
5
100
AcDbSymbolTableRecord
100
AcDbLinetypeTableRecord
2
DOT2
70
0
3
Dot (.5x) .....................................
72
65
73
2
40
3.175
49
0
74
0
49
-3.175
74
0
0
LTYPE
5
34
330
5
100
AcDbSymbolTableRecord
100
AcDbLinetypeTableRecord
2
DOTX2
70
0
3
Dot (2x) .  .  .  .  .  .  .  .  .  .  .  .  .
72
65
73
2
40
12.7
49
0
74
0
49
-12.7
74
0
0
LTYPE
5
35
330
5
100
AcDbSymbolTableRecord
100
AcDbLinetypeTableRecord
2
DASHED
70
0
3
Dot . . . . . . . . . . . . . . . . . . . . . .
72
65
73
2
40
19.05
49
12.7
74
0
49
-6.35
74
0
0
LTYPE
5
36
330
5
100
AcDbSymbolTableRecord
100
AcDbLinetypeTableRecord
2
DASHED2
70
0
3
Dashed (.5x) _ _ _ _ _ _ _ _ _ _ _ _ _ _ _ _ _
72
65
73
2
40
9.525
49
6.35
74
0
49
-3.175
74
0
0
LTYPE
5
37
330
5
100
AcDbSymbolTableRecord
100
AcDbLinetypeTableRecord
2
DASHEDX2
70
0
3
Dashed (2x) ____  ____  ____  ____  ____  ___
72
65
73
2
40
38.1
49
25.4
74
0
49
-12.7
74
0
0
LTYPE
5
38
330
5
100
AcDbSymbolTableRecord
100
AcDbLinetypeTableRecord
2
DASHDOT
70
0
3
Dash dot __ . __ . __ . __ . __ . __ . __ . __
72
65
73
4
40
25.4
49
12.7
74
0
49
-6.35
74
0
49
0
74
0
49
-6.35
74
0
0
LTYPE
5
39
330
5
100
AcDbSymbolTableRecord
100
AcDbLinetypeTableRecord
2
DASHDOT2
70
0
3
Dash dot (.5x) _._._._._._._._._._._._._._._.
72
65
73
4
40
12.7
49
6.35
74
0
49
-3.175
74
0
49
0
74
0
49
-3.175
74
0
0
LTYPE
5
3A
330
5
100
AcDbSymbolTableRecord
100
AcDbLinetypeTableRecord
2
DASHDOTX2
70
0
3
Dash dot (2x) ____  .  ____  .  ____  .  ___
72
65
73
4
40
50.8
49
25.4
74
0
49
-12.7
74
0
49
0
74
0
49
-12.7
74
0
0
LTYPE
5
3B
330
5
100
AcDbSymbolTableRecord
100
AcDbLinetypeTableRecord
2
DIVIDE
70
0
3
Divide ____ . . ____ . . ____ . . ____ . . ____
72
65
73
6
40
31.75
49
12.7
74
0
49
-6.35
74
0
49
0
74
0
49
-6.35
74
0
49
0
74
0
49
-6.35
74
0
0
LTYPE
5
3C
330
5
100
AcDbSymbolTableRecord
100
AcDbLinetypeTableRecord
2
DIVIDE2
70
0
3
Divide (.5x) __..__..__..__..__..__..__..__.._
72
65
73
6
40
15.875
49
6.35
74
0
49
-3.175
74
0
49
0
74
0
49
-3.175
74
0
49
0
74
0
49
-3.175
74
0
0
LTYPE
5
3D
330
5
100
AcDbSymbolTableRecord
100
AcDbLinetypeTableRecord
2
DIVIDEX2
70
0
3
Divide (2x) ________  .  .  ________  .  .  _
72
65
73
6
40
63.5
49
25.4
74
0
49
-12.7
74
0
49
0
74
0
49
-12.7
74
0
49
0
74
0
49
-12.7
74
0
0
LTYPE
5
3E
330
5
100
AcDbSymbolTableRecord
100
AcDbLinetypeTableRecord
2
BORDER
70
0
3
Border __ __ . __ __ . __ __ . __ __ . __ __ .
72
65
73
6
40
44.45
49
12.7
74
0
49
-6.35
74
0
49
12.7
74
0
49
-6.35
74
0
49
0
74
0
49
-6.35
74
0
0
LTYPE
5
3F
330
5
100
AcDbSymbolTableRecord
100
AcDbLinetypeTableRecord
2
BORDER2
70
0
3
Border (.5x) __.__.__.__.__.__.__.__.__.__.__.
72
65
73
6
40
22.225
49
6.35
74
0
49
-3.175
74
0
49
6.35
74
0
49
-3.175
74
0
49
0
74
0
49
-3.175
74
0
0
LTYPE
5
40
330
5
100
AcDbSymbolTableRecord
100
AcDbLinetypeTableRecord
2
BORDERX2
70
0
3
Border (2x) ____  ____  .  ____  ____  .  ___
72
65
73
6
40
88.9
49
25.4
74
0
49
-12.7
74
0
49
25.4
74
0
49
-12.7
74
0
49
0
74
0
49
-12.7
74
0
0
LTYPE
5
41
330
5
100
AcDbSymbolTableRecord
100
AcDbLinetypeTableRecord
2
CENTER
70
0
3
Center ____ _ ____ _ ____ _ ____ _ ____ _ ____
72
65
73
4
40
50.8
49
31.75
74
0
49
-6.35
74
0
49
6.35
74
0
49
-6.35
74
0
0
LTYPE
5
42
330
5
100
AcDbSymbolTableRecord
100
AcDbLinetypeTableRecord
2
CENTER2
70
0
3
Center (.5x) ___ _ ___ _ ___ _ ___ _ ___ _ ___
72
65
73
4
40
28.575
49
19.05
74
0
49
-3.175
74
0
49
3.175
74
0
49
-3.175
74
0
0
LTYPE
5
43
330
5
100
AcDbSymbolTableRecord
100
AcDbLinetypeTableRecord
2
CENTERX2
70
0
3
Center (2x) ________  __  ________  __  _____
72
65
73
4
40
101.6
49
63.5
74
0
49
-12.7
74
0
49
12.7
74
0
49
-12.7
74
0
0
ENDTAB
0
TABLE
2
LAYER
5
2
330
0
100
AcDbSymbolTable
70
1
0
LAYER
5
10
330
2
100
AcDbSymbolTableRecord
100
AcDbLayerTableRecord
2
0
70
0
62
7
6
CONTINUOUS
370
-3
390
F
0
LAYER
5
44
330
2
100
AcDbSymbolTableRecord
100
AcDbLayerTableRecord
2
IV_ARC_CENTERS
70
0
62
7
6
CONTINUOUS
370
50
390
F
0
LAYER
5
45
330
2
100
AcDbSymbolTableRecord
100
AcDbLayerTableRecord
2
IV_OUTER_PROFILE
70
0
62
7
6
CONTINUOUS
370
50
390
F
0
LAYER
5
46
330
2
100
AcDbSymbolTableRecord
100
AcDbLayerTableRecord
2
IV_INTERIOR_PROFILES
70
0
62
7
6
CONTINUOUS
370
50
390
F
0
LAYER
5
47
330
2
100
AcDbSymbolTableRecord
100
AcDbLayerTableRecord
2
IV_FEATURE_PROFILES
70
0
62
7
6
CONTINUOUS
370
100
390
F
0
ENDTAB
0
TABLE
2
STYLE
5
3
330
0
100
AcDbSymbolTable
70
3
0
STYLE
5
48
330
2
100
AcDbSymbolTableRecord
100
AcDbTextStyleTableRecord
2
Standard
70
0
40
0
41
1
50
0
71
0
42
1
3
txt
4

0
ENDTAB
0
TABLE
2
VIEW
5
6
330
0
100
AcDbSymbolTable
70
0
0
ENDTAB
0
TABLE
2
UCS
5
7
330
0
100
AcDbSymbolTable
70
0
0
ENDTAB
0
TABLE
2
APPID
5
9
330
0
100
AcDbSymbolTable
70
1
0
APPID
5
12
330
9
100
AcDbSymbolTableRecord
100
AcDbRegAppTableRecord
2
ACAD
70
0
0
ENDTAB
0
TABLE
2
DIMSTYLE
5
A
330
0
100
AcDbSymbolTable
70
1
100
AcDbDimStyleTable
71
1
0
DIMSTYLE
105
49
330
A
100
AcDbSymbolTableRecord
100
AcDbDimStyleTableRecord
2
Standard
70
0
40
1
41
0.0708661
42
0.0625
43
0.38
44
0.18
45
0
46
0
47
0
48
0
140
0.0708661
141
0.09
142
0
143
25.4
144
1
145
0
146
1
147
0.09
148
0
71
0
72
0
73
0
74
1
75
0
76
0
77
0
78
0
79
0
170
0
171
2
172
0
173
0
174
0
175
0
176
0
177
0
178
0
179
0
271
4
272
4
273
2
274
2
275
0
276
0
277
2
278
46
279
0
280
0
281
0
282
0
283
1
284
0
285
0
286
0
288
0
289
3
340
Standard
341

371
-2
372
-2
0
ENDTAB
0
TABLE
2
BLOCK_RECORD
5
1
330
0
100
AcDbSymbolTable
70
2
0
BLOCK_RECORD
5
1F
330
1
100
AcDbSymbolTableRecord
100
AcDbBlockTableRecord
2
*Model_Space
70
0
280
1
281
0
0
BLOCK_RECORD
5
1E
330
1
100
AcDbSymbolTableRecord
100
AcDbBlockTableRecord
2
*Paper_Space
70
0
280
1
281
0
0
ENDTAB
0
ENDSEC
0
SECTION
2
BLOCKS
0
BLOCK
5
20
330
1F
100
AcDbEntity
8
0
100
AcDbBlockBegin
2
*Model_Space
70
0
10
0
20
0
30
0
3
*Model_Space
1

0
ENDBLK
5
21
330
1F
100
AcDbEntity
8
0
100
AcDbBlockEnd
0
BLOCK
5
1C
330
1B
100
AcDbEntity
8
0
100
AcDbBlockBegin
2
*Paper_Space
70
0
10
0
20
0
30
0
3
*Paper_Space
1

0
ENDBLK
5
1D
330
1F
100
AcDbEntity
8
0
100
AcDbBlockEnd
0
ENDSEC
0
SECTION
2
ENTITIES
0
CIRCLE
5
4A
100
AcDbEntity
8
IV_INTERIOR_PROFILES
6
ByLayer
62
256
370
-1
100
AcDbCircle
10
1.29764006636
20
0.188520645057
40
0.0492125984252
0
CIRCLE
5
4B
100
AcDbEntity
8
IV_INTERIOR_PROFILES
6
ByLayer
62
256
370
-1
100
AcDbCircle
10
0.431498334081
20
0.188520645057
40
0.0492125984252
0
CIRCLE
5
4C
100
AcDbEntity
8
IV_INTERIOR_PROFILES
6
ByLayer
62
256
370
-1
100
AcDbCircle
10
1.29764006636
20
1.55072536947
40
0.0492125984252
0
CIRCLE
5
4D
100
AcDbEntity
8
IV_INTERIOR_PROFILES
6
ByLayer
62
256
370
-1
100
AcDbCircle
10
0.431498334081
20
1.55072536947
40
0.0492125984252
0
CIRCLE
5
4E
100
AcDbEntity
8
IV_INTERIOR_PROFILES
6
ByLayer
62
256
370
-1
100
AcDbCircle
10
2.3722069955
20
1.3026938734
40
0.0492125984252
0
CIRCLE
5
4F
100
AcDbEntity
8
IV_INTERIOR_PROFILES
6
ByLayer
62
256
370
-1
100
AcDbCircle
10
2.3722069955
20
0.43655214112
40
0.0492125984252
0
CIRCLE
5
50
100
AcDbEntity
8
IV_INTERIOR_PROFILES
6
ByLayer
62
256
370
-1
100
AcDbCircle
10
5.66771880652
20
0.188520645057
40
0.0492125984252
0
CIRCLE
5
51
100
AcDbEntity
8
IV_INTERIOR_PROFILES
6
ByLayer
62
256
370
-1
100
AcDbCircle
10
4.80157707424
20
0.188520645057
40
0.0492125984252
0
CIRCLE
5
52
100
AcDbEntity
8
IV_INTERIOR_PROFILES
6
ByLayer
62
256
370
-1
100
AcDbCircle
10
3.7270101451
20
0.43655214112
40
0.0492125984252
0
CIRCLE
5
53
100
AcDbEntity
8
IV_INTERIOR_PROFILES
6
ByLayer
62
256
370
-1
100
AcDbCircle
10
3.7270101451
20
1.3026938734
40
0.0492125984252
0
CIRCLE
5
54
100
AcDbEntity
8
IV_INTERIOR_PROFILES
6
ByLayer
62
256
370
-1
100
AcDbCircle
10
4.80157707424
20
1.55072536947
40
0.0492125984252
0
CIRCLE
5
55
100
AcDbEntity
8
IV_INTERIOR_PROFILES
6
ByLayer
62
256
370
-1
100
AcDbCircle
10
5.66771880652
20
1.55072536947
40
0.0492125984252
0
ARC
5
56
100
AcDbEntity
8
IV_OUTER_PROFILE
6
ByLayer
62
256
370
-1
100
AcDbCircle
10
0.510180327312
20
1.19048914899
40
0.5
100
AcDbArc
50
90
51
150
0
LINE
5
57
100
AcDbEntity
8
IV_OUTER_PROFILE
6
ByLayer
62
256
370
-1
100
AcDbLine
10
0.0771676254195
20
1.44048914899
11
2.2622069955
21
1.44048914899
0
LINE
5
58
100
AcDbEntity
8
IV_OUTER_PROFILE
6
ByLayer
62
256
370
-1
100
AcDbLine
10
2.2622069955
20
1.44048914899
11
2.2622069955
21
0.298756865529
0
LINE
5
59
100
AcDbEntity
8
IV_OUTER_PROFILE
6
ByLayer
62
256
370
-1
100
AcDbLine
10
2.2622069955
20
0.298756865529
11
0.0771676254195
21
0.298756865529
0
ARC
5
5A
100
AcDbEntity
8
IV_OUTER_PROFILE
6
ByLayer
62
256
370
-1
100
AcDbCircle
10
0.510180327312
20
0.548756865529
40
0.5
100
AcDbArc
50
210
51
270
0
LINE
5
5B
100
AcDbEntity
8
IV_OUTER_PROFILE
6
ByLayer
62
256
370
-1
100
AcDbLine
10
5.58903681329
20
0.0487568655293
11
0.510180327312
21
0.0487568655293
0
ARC
5
5C
100
AcDbEntity
8
IV_OUTER_PROFILE
6
ByLayer
62
256
370
-1
100
AcDbCircle
10
5.58903681329
20
0.548756865529
40
0.5
100
AcDbArc
50
270
51
330
0
LINE
5
5D
100
AcDbEntity
8
IV_OUTER_PROFILE
6
ByLayer
62
256
370
-1
100
AcDbLine
10
6.02204951518
20
0.298756865529
11
3.8370101451
21
0.298756865529
0
LINE
5
5E
100
AcDbEntity
8
IV_OUTER_PROFILE
6
ByLayer
62
256
370
-1
100
AcDbLine
10
3.8370101451
20
0.298756865529
11
3.8370101451
21
1.44048914899
0
LINE
5
5F
100
AcDbEntity
8
IV_OUTER_PROFILE
6
ByLayer
62
256
370
-1
100
AcDbLine
10
3.8370101451
20
1.44048914899
11
6.02204951518
21
1.44048914899
0
ARC
5
60
100
AcDbEntity
8
IV_OUTER_PROFILE
6
ByLayer
62
256
370
-1
100
AcDbCircle
10
5.58903681329
20
1.19048914899
40
0.5
100
AcDbArc
50
30
51
90
0
CIRCLE
5
61
100
AcDbEntity
8
IV_INTERIOR_PROFILES
6
ByLayer
62
256
370
-1
100
AcDbCircle
10
1.29764006636
20
2.18852064506
40
0.0492125984252
0
CIRCLE
5
62
100
AcDbEntity
8
IV_INTERIOR_PROFILES
6
ByLayer
62
256
370
-1
100
AcDbCircle
10
0.431498334081
20
2.18852064506
40
0.0492125984252
0
CIRCLE
5
63
100
AcDbEntity
8
IV_INTERIOR_PROFILES
6
ByLayer
62
256
370
-1
100
AcDbCircle
10
1.29764006636
20
3.55072536947
40
0.0492125984252
0
CIRCLE
5
64
100
AcDbEntity
8
IV_INTERIOR_PROFILES
6
ByLayer
62
256
370
-1
100
AcDbCircle
10
0.431498334081
20
3.55072536947
40
0.0492125984252
0
CIRCLE
5
65
100
AcDbEntity
8
IV_INTERIOR_PROFILES
6
ByLayer
62
256
370
-1
100
AcDbCircle
10
2.3722069955
20
3.3026938734
40
0.0492125984252
0
CIRCLE
5
66
100
AcDbEntity
8
IV_INTERIOR_PROFILES
6
ByLayer
62
256
370
-1
100
AcDbCircle
10
2.3722069955
20
2.43655214112
40
0.0492125984252
0
CIRCLE
5
67
100
AcDbEntity
8
IV_INTERIOR_PROFILES
6
ByLayer
62
256
370
-1
100
AcDbCircle
10
5.66771880652
20
2.18852064506
40
0.0492125984252
0
CIRCLE
5
68
100
AcDbEntity
8
IV_INTERIOR_PROFILES
6
ByLayer
62
256
370
-1
100
AcDbCircle
10
4.80157707424
20
2.18852064506
40
0.0492125984252
0
CIRCLE
5
69
100
AcDbEntity
8
IV_INTERIOR_PROFILES
6
ByLayer
62
256
370
-1
100
AcDbCircle
10
3.7270101451
20
2.43655214112
40
0.0492125984252
0
CIRCLE
5
6A
100
AcDbEntity
8
IV_INTERIOR_PROFILES
6
ByLayer
62
256
370
-1
100
AcDbCircle
10
3.7270101451
20
3.3026938734
40
0.0492125984252
0
CIRCLE
5
6B
100
AcDbEntity
8
IV_INTERIOR_PROFILES
6
ByLayer
62
256
370
-1
100
AcDbCircle
10
4.80157707424
20
3.55072536947
40
0.0492125984252
0
CIRCLE
5
6C
100
AcDbEntity
8
IV_INTERIOR_PROFILES
6
ByLayer
62
256
370
-1
100
AcDbCircle
10
5.66771880652
20
3.55072536947
40
0.0492125984252
0
ARC
5
6D
100
AcDbEntity
8
IV_OUTER_PROFILE
6
ByLayer
62
256
370
-1
100
AcDbCircle
10
0.510180327312
20
3.19048914899
40
0.5
100
AcDbArc
50
90
51
150
0
LINE
5
6E
100
AcDbEntity
8
IV_OUTER_PROFILE
6
ByLayer
62
256
370
-1
100
AcDbLine
10
0.510180327312
20
3.69048914899
11
5.58903681329
21
3.69048914899
0
LINE
5
6F
100
AcDbEntity
8
IV_OUTER_PROFILE
6
ByLayer
62
256
370
-1
100
AcDbLine
10
0.0771676254195
20
3.44048914899
11
2.2622069955
21
3.44048914899
0
LINE
5
70
100
AcDbEntity
8
IV_OUTER_PROFILE
6
ByLayer
62
256
370
-1
100
AcDbLine
10
2.2622069955
20
3.44048914899
11
2.2622069955
21
2.29875686553
0
LINE
5
71
100
AcDbEntity
8
IV_OUTER_PROFILE
6
ByLayer
62
256
370
-1
100
AcDbLine
10
2.2622069955
20
2.29875686553
11
0.0771676254195
21
2.29875686553
0
ARC
5
72
100
AcDbEntity
8
IV_OUTER_PROFILE
6
ByLayer
62
256
370
-1
100
AcDbCircle
10
0.510180327312
20
2.54875686553
40
0.5
100
AcDbArc
50
210
51
270
0
LINE
5
73
100
AcDbEntity
8
IV_OUTER_PROFILE
6
ByLayer
62
256
370
-1
100
AcDbLine
10
5.58903681329
20
2.04875686553
11
0.510180327312
21
2.04875686553
0
ARC
5
74
100
AcDbEntity
8
IV_OUTER_PROFILE
6
ByLayer
62
256
370
-1
100
AcDbCircle
10
5.58903681329
20
2.54875686553
40
0.5
100
AcDbArc
50
270
51
330
0
LINE
5
75
100
AcDbEntity
8
IV_OUTER_PROFILE
6
ByLayer
62
256
370
-1
100
AcDbLine
10
6.02204951518
20
2.29875686553
11
3.8370101451
21
2.29875686553
0
LINE
5
76
100
AcDbEntity
8
IV_OUTER_PROFILE
6
ByLayer
62
256
370
-1
100
AcDbLine
10
3.8370101451
20
2.29875686553
11
3.8370101451
21
3.44048914899
0
LINE
5
77
100
AcDbEntity
8
IV_OUTER_PROFILE
6
ByLayer
62
256
370
-1
100
AcDbLine
10
3.8370101451
20
3.44048914899
11
6.02204951518
21
3.44048914899
0
ARC
5
78
100
AcDbEntity
8
IV_OUTER_PROFILE
6
ByLayer
62
256
370
-1
100
AcDbCircle
10
5.58903681329
20
3.19048914899
40
0.5
100
AcDbArc
50
30
51
90
0
CIRCLE
5
79
100
AcDbEntity
8
IV_INTERIOR_PROFILES
6
ByLayer
62
256
370
-1
100
AcDbCircle
10
0.482950896101
20
4.4575731627
40
0.125
0
CIRCLE
5
7A
100
AcDbEntity
8
IV_INTERIOR_PROFILES
6
ByLayer
62
256
370
-1
100
AcDbCircle
10
1.4829508961
20
4.4575731627
40
0.125
0
CIRCLE
5
7B
100
AcDbEntity
8
IV_INTERIOR_PROFILES
6
ByLayer
62
256
370
-1
100
AcDbCircle
10
2.3489508961
20
4.4575731627
40
0.125
0
CIRCLE
5
7C
100
AcDbEntity
8
IV_INTERIOR_PROFILES
6
ByLayer
62
256
370
-1
100
AcDbCircle
10
3.3489508961
20
4.4575731627
40
0.125
0
ARC
5
7D
100
AcDbEntity
8
IV_OUTER_PROFILE
6
ByLayer
62
256
370
-1
100
AcDbCircle
10
0.425950896101
20
4.5825731627
40
0.375
100
AcDbArc
50
90
51
180
0
LINE
5
7E
100
AcDbEntity
8
IV_OUTER_PROFILE
6
ByLayer
62
256
370
-1
100
AcDbLine
10
0.425950896101
20
4.9575731627
11
3.4059508961
21
4.9575731627
0
LINE
5
7F
100
AcDbEntity
8
IV_OUTER_PROFILE
6
ByLayer
62
256
370
-1
100
AcDbLine
10
0.0509508961013
20
4.3325731627
11
0.0509508961013
21
4.5825731627
0
ARC
5
80
100
AcDbEntity
8
IV_OUTER_PROFILE
6
ByLayer
62
256
370
-1
100
AcDbCircle
10
0.425950896101
20
4.3325731627
40
0.375
100
AcDbArc
50
180
51
270
0
LINE
5
81
100
AcDbEntity
8
IV_OUTER_PROFILE
6
ByLayer
62
256
370
-1
100
AcDbLine
10
3.4059508961
20
3.9575731627
11
0.425950896101
21
3.9575731627
0
ARC
5
82
100
AcDbEntity
8
IV_OUTER_PROFILE
6
ByLayer
62
256
370
-1
100
AcDbCircle
10
3.4059508961
20
4.3325731627
40
0.375
100
AcDbArc
50
270
51
0
0
LINE
5
83
100
AcDbEntity
8
IV_OUTER_PROFILE
6
ByLayer
62
256
370
-1
100
AcDbLine
10
3.7809508961
20
4.5825731627
11
3.7809508961
21
4.3325731627
0
ARC
5
84
100
AcDbEntity
8
IV_OUTER_PROFILE
6
ByLayer
62
256
370
-1
100
AcDbCircle
10
3.4059508961
20
4.5825731627
40
0.375
100
AcDbArc
50
0
51
90
0
LINE
5
85
100
AcDbEntity
8
IV_OUTER_PROFILE
6
CONTINUOUS
62
7
370
25
100
AcDbLine
10
6.27678540179
20
0.0467106659619
11
6.27678540179
21
3.54671066596
0
LINE
5
86
100
AcDbEntity
8
IV_OUTER_PROFILE
6
CONTINUOUS
62
7
370
25
100
AcDbLine
10
8.27678540179
20
0.0467106659619
11
6.27678540179
21
0.0467106659619
0
LINE
5
87
100
AcDbEntity
8
IV_OUTER_PROFILE
6
CONTINUOUS
62
7
370
25
100
AcDbLine
10
8.27678540179
20
1.04671066596
11
8.27678540179
21
0.0467106659619
0
LINE
5
88
100
AcDbEntity
8
IV_OUTER_PROFILE
6
CONTINUOUS
62
7
370
25
100
AcDbLine
10
7.27678540179
20
3.54671066596
11
8.27678540179
21
1.04671066596
0
LINE
5
89
100
AcDbEntity
8
IV_OUTER_PROFILE
6
CONTINUOUS
62
7
370
25
100
AcDbLine
10
6.27678540179
20
3.54671066596
11
7.27678540179
21
3.54671066596
0
LINE
5
8A
100
AcDbEntity
8
IV_INTERIOR_PROFILES
6
CONTINUOUS
62
7
370
25
100
AcDbLine
10
6.64981689785
20
3.04671066596
11
6.64981689785
21
2.04671066596
0
LINE
5
8B
100
AcDbEntity
8
IV_INTERIOR_PROFILES
6
CONTINUOUS
62
7
370
25
100
AcDbLine
10
6.64981689785
20
2.04671066596
11
6.52678540179
21
2.04671066596
0
LINE
5
8C
100
AcDbEntity
8
IV_INTERIOR_PROFILES
6
CONTINUOUS
62
7
370
25
100
AcDbLine
10
6.52678540179
20
2.04671066596
11
6.52678540179
21
3.04671066596
0
LINE
5
8D
100
AcDbEntity
8
IV_INTERIOR_PROFILES
6
CONTINUOUS
62
7
370
25
100
AcDbLine
10
6.52678540179
20
3.04671066596
11
6.64981689785
21
3.04671066596
0
CIRCLE
5
8E
100
AcDbEntity
8
IV_FEATURE_PROFILES
6
CONTINUOUS
62
7
370
25
100
AcDbCircle
10
7.77678540179
20
0.546710665962
40
0.125
0
CIRCLE
5
8F
100
AcDbEntity
8
IV_INTERIOR_PROFILES
6
ByLayer
62
256
370
-1
100
AcDbCircle
10
0.513136528102
20
5.7321762134
40
0.125
0
CIRCLE
5
90
100
AcDbEntity
8
IV_INTERIOR_PROFILES
6
ByLayer
62
256
370
-1
100
AcDbCircle
10
1.5131365281
20
5.7321762134
40
0.125
0
CIRCLE
5
91
100
AcDbEntity
8
IV_INTERIOR_PROFILES
6
ByLayer
62
256
370
-1
100
AcDbCircle
10
2.3791365281
20
5.7321762134
40
0.125
0
CIRCLE
5
92
100
AcDbEntity
8
IV_INTERIOR_PROFILES
6
ByLayer
62
256
370
-1
100
AcDbCircle
10
3.3791365281
20
5.7321762134
40
0.125
0
ARC
5
93
100
AcDbEntity
8
IV_OUTER_PROFILE
6
ByLayer
62
256
370
-1
100
AcDbCircle
10
0.456136528102
20
5.8571762134
40
0.375
100
AcDbArc
50
90
51
180
0
LINE
5
94
100
AcDbEntity
8
IV_OUTER_PROFILE
6
ByLayer
62
256
370
-1
100
AcDbLine
10
0.456136528102
20
6.2321762134
11
3.4361365281
21
6.2321762134
0
LINE
5
95
100
AcDbEntity
8
IV_OUTER_PROFILE
6
ByLayer
62
256
370
-1
100
AcDbLine
10
0.0811365281017
20
5.6071762134
11
0.0811365281017
21
5.8571762134
0
ARC
5
96
100
AcDbEntity
8
IV_OUTER_PROFILE
6
ByLayer
62
256
370
-1
100
AcDbCircle
10
0.456136528102
20
5.6071762134
40
0.375
100
AcDbArc
50
180
51
270
0
LINE
5
97
100
AcDbEntity
8
IV_OUTER_PROFILE
6
ByLayer
62
256
370
-1
100
AcDbLine
10
3.4361365281
20
5.2321762134
11
0.456136528102
21
5.2321762134
0
ARC
5
98
100
AcDbEntity
8
IV_OUTER_PROFILE
6
ByLayer
62
256
370
-1
100
AcDbCircle
10
3.4361365281
20
5.6071762134
40
0.375
100
AcDbArc
50
270
51
0
0
LINE
5
99
100
AcDbEntity
8
IV_OUTER_PROFILE
6
ByLayer
62
256
370
-1
100
AcDbLine
10
3.8111365281
20
5.8571762134
11
3.8111365281
21
5.6071762134
0
ARC
5
9A
100
AcDbEntity
8
IV_OUTER_PROFILE
6
ByLayer
62
256
370
-1
100
AcDbCircle
10
3.4361365281
20
5.8571762134
40
0.375
100
AcDbArc
50
0
51
90
0
LINE
5
9B
100
AcDbEntity
8
IV_OUTER_PROFILE
6
CONTINUOUS
62
7
370
25
100
AcDbLine
10
8.46681012927
20
0.0813141087736
11
8.46681012927
21
2.08131410877
0
LINE
5
9C
100
AcDbEntity
8
IV_OUTER_PROFILE
6
CONTINUOUS
62
7
370
25
100
AcDbLine
10
9.46681012927
20
0.0813141087736
11
8.46681012927
21
0.0813141087736
0
LINE
5
9D
100
AcDbEntity
8
IV_OUTER_PROFILE
6
CONTINUOUS
62
7
370
25
100
AcDbLine
10
9.46681012927
20
2.08131410877
11
9.46681012927
21
0.0813141087736
0
LINE
5
9E
100
AcDbEntity
8
IV_OUTER_PROFILE
6
CONTINUOUS
62
7
370
25
100
AcDbLine
10
8.46681012927
20
2.08131410877
11
9.46681012927
21
2.08131410877
0
CIRCLE
5
9F
100
AcDbEntity
8
IV_FEATURE_PROFILES
6
CONTINUOUS
62
7
370
25
100
AcDbCircle
10
8.96681012927
20
0.581314108774
40
0.125
0
CIRCLE
5
A0
100
AcDbEntity
8
IV_FEATURE_PROFILES
6
CONTINUOUS
62
7
370
25
100
AcDbCircle
10
8.96681012927
20
1.58131410877
40
0.125
0
LINE
5
A1
100
AcDbEntity
8
IV_OUTER_PROFILE
6
CONTINUOUS
62
7
370
25
100
AcDbLine
10
8.24544882794
20
2.35304452561
11
8.24544882794
21
4.35304452561
0
LINE
5
A2
100
AcDbEntity
8
IV_OUTER_PROFILE
6
CONTINUOUS
62
7
370
25
100
AcDbLine
10
9.24544882794
20
2.35304452561
11
8.24544882794
21
2.35304452561
0
LINE
5
A3
100
AcDbEntity
8
IV_OUTER_PROFILE
6
CONTINUOUS
62
7
370
25
100
AcDbLine
10
9.24544882794
20
4.35304452561
11
9.24544882794
21
2.35304452561
0
LINE
5
A4
100
AcDbEntity
8
IV_OUTER_PROFILE
6
CONTINUOUS
62
7
370
25
100
AcDbLine
10
8.24544882794
20
4.35304452561
11
9.24544882794
21
4.35304452561
0
CIRCLE
5
A5
100
AcDbEntity
8
IV_FEATURE_PROFILES
6
CONTINUOUS
62
7
370
25
100
AcDbCircle
10
8.74544882794
20
2.85304452561
40
0.125
0
CIRCLE
5
A6
100
AcDbEntity
8
IV_FEATURE_PROFILES
6
CONTINUOUS
62
7
370
25
100
AcDbCircle
10
8.74544882794
20
3.85304452561
40
0.125
0
LINE
5
A7
100
AcDbEntity
8
IV_OUTER_PROFILE
6
CONTINUOUS
62
7
370
25
100
AcDbLine
10
7.79137030126
20
5.02401658979
11
7.79137030126
21
6.02401658979
0
LINE
5
A8
100
AcDbEntity
8
IV_OUTER_PROFILE
6
CONTINUOUS
62
7
370
25
100
AcDbLine
10
7.91637030126
20
5.02401658979
11
7.79137030126
21
5.02401658979
0
LINE
5
A9
100
AcDbEntity
8
IV_OUTER_PROFILE
6
CONTINUOUS
62
7
370
25
100
AcDbLine
10
7.91637030126
20
4.52401658979
11
7.91637030126
21
5.02401658979
0
LINE
5
AA
100
AcDbEntity
8
IV_OUTER_PROFILE
6
CONTINUOUS
62
7
370
25
100
AcDbLine
10
9.16637030126
20
4.52401658979
11
7.91637030126
21
4.52401658979
0
LINE
5
AB
100
AcDbEntity
8
IV_OUTER_PROFILE
6
CONTINUOUS
62
7
370
25
100
AcDbLine
10
9.16637030126
20
5.02401658979
11
9.16637030126
21
4.52401658979
0
LINE
5
AC
100
AcDbEntity
8
IV_OUTER_PROFILE
6
CONTINUOUS
62
7
370
25
100
AcDbLine
10
9.29137030126
20
5.02401658979
11
9.16637030126
21
5.02401658979
0
LINE
5
AD
100
AcDbEntity
8
IV_OUTER_PROFILE
6
CONTINUOUS
62
7
370
25
100
AcDbLine
10
9.29137030126
20
6.02401658979
11
9.29137030126
21
5.02401658979
0
LINE
5
AE
100
AcDbEntity
8
IV_OUTER_PROFILE
6
CONTINUOUS
62
7
370
25
100
AcDbLine
10
9.16637030126
20
6.02401658979
11
9.29137030126
21
6.02401658979
0
LINE
5
AF
100
AcDbEntity
8
IV_OUTER_PROFILE
6
CONTINUOUS
62
7
370
25
100
AcDbLine
10
9.16637030126
20
6.52401658979
11
9.16637030126
21
6.02401658979
0
LINE
5
B0
100
AcDbEntity
8
IV_OUTER_PROFILE
6
CONTINUOUS
62
7
370
25
100
AcDbLine
10
7.91637030126
20
6.52401658979
11
9.16637030126
21
6.52401658979
0
LINE
5
B1
100
AcDbEntity
8
IV_OUTER_PROFILE
6
CONTINUOUS
62
7
370
25
100
AcDbLine
10
7.91637030126
20
6.02401658979
11
7.91637030126
21
6.52401658979
0
LINE
5
B2
100
AcDbEntity
8
IV_OUTER_PROFILE
6
CONTINUOUS
62
7
370
25
100
AcDbLine
10
7.79137030126
20
6.02401658979
11
7.91637030126
21
6.02401658979
0
CIRCLE
5
B3
100
AcDbEntity
8
IV_INTERIOR_PROFILES
6
CONTINUOUS
62
7
370
25
100
AcDbCircle
10
8.54137030126
20
5.14901658979
40
0.433070866142
0
LINE
5
B4
100
AcDbEntity
8
0
6
ByLayer
62
256
370
-1
100
AcDbLine
10
0.392015921799
20
0.551152404376
11
0.864456866681
21
0.551152404376
0
LINE
5
B5
100
AcDbEntity
8
0
6
ByLayer
62
256
370
-1
100
AcDbLine
10
0.864456866681
20
0.551152404376
11
0.864456866681
21
1.18107366422
0
LINE
5
B6
100
AcDbEntity
8
0
6
ByLayer
62
256
370
-1
100
AcDbLine
10
0.864456866681
20
1.18107366422
11
0.392015921799
21
1.18107366422
0
LINE
5
B7
100
AcDbEntity
8
0
6
ByLayer
62
256
370
-1
100
AcDbLine
10
0.392015921799
20
1.18107366422
11
0.392015921799
21
0.551152404376
0
CIRCLE
5
B8
100
AcDbEntity
8
0
6
ByLayer
62
256
370
-1
100
AcDbCircle
10
0.529811197389
20
0.708632719337
40
0.0196850393701
0
CIRCLE
5
B9
100
AcDbEntity
8
0
6
ByLayer
62
256
370
-1
100
AcDbCircle
10
0.72666159109
20
0.708632719337
40
0.0196850393701
0
CIRCLE
5
BA
100
AcDbEntity
8
0
6
ByLayer
62
256
370
-1
100
AcDbCircle
10
0.529811197389
20
1.02359334926
40
0.0196850393701
0
CIRCLE
5
BB
100
AcDbEntity
8
0
6
ByLayer
62
256
370
-1
100
AcDbCircle
10
0.72666159109
20
1.02359334926
40
0.0196850393701
0
LINE
5
BC
100
AcDbEntity
8
0
6
ByLayer
62
256
370
-1
100
AcDbLine
10
1.04785940358
20
0.547776198588
11
1.52030034846
21
0.547776198588
0
LINE
5
BD
100
AcDbEntity
8
0
6
ByLayer
62
256
370
-1
100
AcDbLine
10
1.52030034846
20
0.547776198588
11
1.52030034846
21
1.17769745843
0
LINE
5
BE
100
AcDbEntity
8
0
6
ByLayer
62
256
370
-1
100
AcDbLine
10
1.52030034846
20
1.17769745843
11
1.04785940358
21
1.17769745843
0
LINE
5
BF
100
AcDbEntity
8
0
6
ByLayer
62
256
370
-1
100
AcDbLine
10
1.04785940358
20
1.17769745843
11
1.04785940358
21
0.547776198588
0
CIRCLE
5
C0
100
AcDbEntity
8
0
6
ByLayer
62
256
370
-1
100
AcDbCircle
10
1.18565467917
20
0.705256513549
40
0.0196850393701
0
CIRCLE
5
C1
100
AcDbEntity
8
0
6
ByLayer
62
256
370
-1
100
AcDbCircle
10
1.38250507287
20
0.705256513549
40
0.0196850393701
0
CIRCLE
5
C2
100
AcDbEntity
8
0
6
ByLayer
62
256
370
-1
100
AcDbCircle
10
1.18565467917
20
1.02021714347
40
0.0196850393701
0
CIRCLE
5
C3
100
AcDbEntity
8
0
6
ByLayer
62
256
370
-1
100
AcDbCircle
10
1.38250507287
20
1.02021714347
40
0.0196850393701
0
LINE
5
C4
100
AcDbEntity
8
IV_OUTER_PROFILE
6
CONTINUOUS
62
7
370
25
100
AcDbLine
10
0.130090672395
20
7.80425529281
11
3.6300906724
21
7.80425529281
0
LINE
5
C5
100
AcDbEntity
8
IV_OUTER_PROFILE
6
CONTINUOUS
62
7
370
25
100
AcDbLine
10
0.130090672395
20
6.36675529281
11
0.130090672395
21
7.80425529281
0
LINE
5
C6
100
AcDbEntity
8
IV_OUTER_PROFILE
6
CONTINUOUS
62
7
370
25
100
AcDbLine
10
3.6300906724
20
6.80425529281
11
0.130090672395
21
6.36675529281
0
LINE
5
C7
100
AcDbEntity
8
IV_OUTER_PROFILE
6
CONTINUOUS
62
7
370
25
100
AcDbLine
10
3.6300906724
20
7.80425529281
11
3.6300906724
21
6.80425529281
0
CIRCLE
5
C8
100
AcDbEntity
8
IV_INTERIOR_PROFILES
6
CONTINUOUS
62
7
370
25
100
AcDbCircle
10
2.1300906724
20
7.30425529281
40
0.125
0
CIRCLE
5
C9
100
AcDbEntity
8
IV_INTERIOR_PROFILES
6
CONTINUOUS
62
7
370
25
100
AcDbCircle
10
3.1300906724
20
7.30425529281
40
0.125
0
CIRCLE
5
CA
100
AcDbEntity
8
IV_INTERIOR_PROFILES
6
CONTINUOUS
62
7
370
25
100
AcDbCircle
10
0.942590672395
20
7.42925529281
40
0.0625
0
CIRCLE
5
CB
100
AcDbEntity
8
IV_INTERIOR_PROFILES
6
CONTINUOUS
62
7
370
25
100
AcDbCircle
10
0.317590672395
20
6.79933403297
40
0.0625
0
CIRCLE
5
CC
100
AcDbEntity
8
IV_INTERIOR_PROFILES
6
CONTINUOUS
62
7
370
25
100
AcDbCircle
10
0.317590672395
20
7.42925529281
40
0.0625
0
CIRCLE
5
CD
100
AcDbEntity
8
IV_INTERIOR_PROFILES
6
CONTINUOUS
62
7
370
25
100
AcDbCircle
10
0.942590672395
20
6.79933403297
40
0.0625
0
LINE
5
CE
100
AcDbEntity
8
IV_OUTER_PROFILE
6
CONTINUOUS
62
7
370
25
100
AcDbLine
10
7.59743111971
20
7.80425529281
11
4.09743111971
21
7.80425529281
0
LINE
5
CF
100
AcDbEntity
8
IV_OUTER_PROFILE
6
CONTINUOUS
62
7
370
25
100
AcDbLine
10
7.59743111971
20
6.36675529281
11
7.59743111971
21
7.80425529281
0
LINE
5
D0
100
AcDbEntity
8
IV_OUTER_PROFILE
6
CONTINUOUS
62
7
370
25
100
AcDbLine
10
4.09743111971
20
6.80425529281
11
7.59743111971
21
6.36675529281
0
LINE
5
D1
100
AcDbEntity
8
IV_OUTER_PROFILE
6
CONTINUOUS
62
7
370
25
100
AcDbLine
10
4.09743111971
20
7.80425529281
11
4.09743111971
21
6.80425529281
0
CIRCLE
5
D2
100
AcDbEntity
8
IV_INTERIOR_PROFILES
6
CONTINUOUS
62
7
370
25
100
AcDbCircle
10
5.59743111971
20
7.30425529281
40
0.125
0
CIRCLE
5
D3
100
AcDbEntity
8
IV_INTERIOR_PROFILES
6
CONTINUOUS
62
7
370
25
100
AcDbCircle
10
4.59743111971
20
7.30425529281
40
0.125
0
CIRCLE
5
D4
100
AcDbEntity
8
IV_INTERIOR_PROFILES
6
CONTINUOUS
62
7
370
25
100
AcDbCircle
10
6.78493111971
20
7.42925529281
40
0.0625
0
CIRCLE
5
D5
100
AcDbEntity
8
IV_INTERIOR_PROFILES
6
CONTINUOUS
62
7
370
25
100
AcDbCircle
10
7.40993111971
20
6.79933403297
40
0.0625
0
CIRCLE
5
D6
100
AcDbEntity
8
IV_INTERIOR_PROFILES
6
CONTINUOUS
62
7
370
25
100
AcDbCircle
10
7.40993111971
20
7.42925529281
40
0.0625
0
CIRCLE
5
D7
100
AcDbEntity
8
IV_INTERIOR_PROFILES
6
CONTINUOUS
62
7
370
25
100
AcDbCircle
10
6.78493111971
20
6.79933403297
40
0.0625
0
LINE
5
D8
100
AcDbEntity
8
IV_OUTER_PROFILE
6
CONTINUOUS
62
7
370
25
100
AcDbLine
10
7.5417962289
20
5.82990689089
11
4.0417962289
21
5.82990689089
0
LINE
5
D9
100
AcDbEntity
8
IV_OUTER_PROFILE
6
CONTINUOUS
62
7
370
25
100
AcDbLine
10
7.5417962289
20
3.82990689089
11
7.5417962289
21
5.82990689089
0
LINE
5
DA
100
AcDbEntity
8
IV_OUTER_PROFILE
6
CONTINUOUS
62
7
370
25
100
AcDbLine
10
6.5417962289
20
3.82990689089
11
7.5417962289
21
3.82990689089
0
LINE
5
DB
100
AcDbEntity
8
IV_OUTER_PROFILE
6
CONTINUOUS
62
7
370
25
100
AcDbLine
10
4.0417962289
20
4.82990689089
11
6.5417962289
21
3.82990689089
0
LINE
5
DC
100
AcDbEntity
8
IV_OUTER_PROFILE
6
CONTINUOUS
62
7
370
25
100
AcDbLine
10
4.0417962289
20
5.82990689089
11
4.0417962289
21
4.82990689089
0
LINE
5
DD
100
AcDbEntity
8
IV_INTERIOR_PROFILES
6
CONTINUOUS
62
7
370
25
100
AcDbLine
10
4.5417962289
20
5.45687539483
11
5.5417962289
21
5.45687539483
0
LINE
5
DE
100
AcDbEntity
8
IV_INTERIOR_PROFILES
6
CONTINUOUS
62
7
370
25
100
AcDbLine
10
5.5417962289
20
5.45687539483
11
5.5417962289
21
5.57990689089
0
LINE
5
DF
100
AcDbEntity
8
IV_INTERIOR_PROFILES
6
CONTINUOUS
62
7
370
25
100
AcDbLine
10
5.5417962289
20
5.57990689089
11
4.5417962289
21
5.57990689089
0
LINE
5
E0
100
AcDbEntity
8
IV_INTERIOR_PROFILES
6
CONTINUOUS
62
7
370
25
100
AcDbLine
10
4.5417962289
20
5.57990689089
11
4.5417962289
21
5.45687539483
0
CIRCLE
5
E1
100
AcDbEntity
8
IV_FEATURE_PROFILES
6
CONTINUOUS
62
7
370
25
100
AcDbCircle
10
7.0417962289
20
4.32990689089
40
0.125
0
CIRCLE
5
E2
100
AcDbEntity
8
IV_FEATURE_PROFILES
6
CONTINUOUS
62
7
370
25
100
AcDbCircle
10
7.0417962289
20
5.32990689089
40
0.125
0
LINE
5
E3
100
AcDbEntity
8
IV_OUTER_PROFILE
6
CONTINUOUS
62
7
370
50
100
AcDbLine
10
0.510180327312
20
1.69048914899
11
5.58903681329
21
1.69048914899
0
CIRCLE
5
E4
100
AcDbEntity
8
IV_FEATURE_PROFILES
6
CONTINUOUS
62
7
370
25
100
AcDbCircle
10
6.77678540179
20
0.546710665962
40
0.125
0
CIRCLE
5
E5
100
AcDbEntity
8
IV_FEATURE_PROFILES
6
CONTINUOUS
62
7
370
25
100
AcDbCircle
10
5.6667962289
20
5.20687539483
40
0.06
0
CIRCLE
5
E6
100
AcDbEntity
8
IV_FEATURE_PROFILES
6
CONTINUOUS
62
7
370
25
100
AcDbCircle
10
6.89981689785
20
1.92171066596
40
0.06
0
ENDSEC
0
SECTION
2
OBJECTS
0
DICTIONARY
5
C
330
0
100
AcDbDictionary
281
1
3
ACAD_GROUP
350
D
0
DICTIONARY
5
D
330
C
100
AcDbDictionary
281
1
0
ENDSEC
0
EOF
