999
dxfrw 0.5.10
0
SECTION
2
HEADER
9
$ACADVER
1
AC1021
9
$HANDSEED
5
20000
9
$DWGCODEPAGE
3
ANSI_1252
9
$INSBASE
10
0
20
0
30
0
9
$EXTMIN
10
0.0855187810181
20
0.0668757536493
30
0
9
$EXTMAX
10
43.6105949028
20
19.2135797027
30
0
9
$LIMMIN
10
0
20
0
9
$LIMMAX
10
3.88533009703
20
3.56084190805
9
$ORTHOMODE
70
0
9
$LTSCALE
40
1
9
$TEXTSTYLE
7
Standard
9
$CLAYER
8
0
9
$DIMASZ
40
0.0708661417323
9
$DIMLFAC
40
1
9
$DIMSCALE
40
1
9
$DIMEXO
40
0.0625
9
$DIMEXE
40
0.18
9
$DIMTXT
40
0.0708661417323
9
$DIMTSZ
40
0
9
$DIMAUNIT
70
0
9
$DIMADEC
70
0
9
$DIMLUNIT
70
2
9
$DIMSTYLE
2
Standard
9
$DIMGAP
40
0.09
9
$DIMTIH
70
1
9
$LUNITS
70
2
9
$LUPREC
70
4
9
$AUNITS
70
0
9
$AUPREC
70
0
9
$SPLINESEGS
70
8
9
$GRIDMODE
70
1
9
$SNAPSTYLE
70
0
9
$PINSBASE
10
0
20
0
30
0
9
$PLIMMIN
10
0
20
0
9
$PLIMMAX
10
3.88533009703
20
3.56084190805
9
$INSUNITS
70
1
9
$PSVPSCALE
40
0
0
ENDSEC
0
SECTION
2
CLASSES
0
ENDSEC
0
SECTION
2
TABLES
0
TABLE
2
VPORT
5
8
330
0
100
AcDbSymbolTable
70
1
0
VPORT
5
31
330
2
100
AcDbSymbolTableRecord
100
AcDbViewportTableRecord
2
*ACTIVE
70
0
10
0
20
0
11
1
21
1
12
29.2868560771
22
17.1111168376
13
0
23
0
14
10
24
10
15
10
25
10
16
0
26
0
36
1
17
0
27
0
37
0
40
39.862665216
41
2.14013605442
42
50
43
0
44
0
50
0
51
0
71
0
72
100
73
1
74
3
75
0
76
1
77
0
78
0
281
0
65
1
110
0
120
0
130
0
111
1
121
0
131
0
112
0
122
1
132
0
79
0
146
0
348
10020
60
7
61
5
292
1
282
1
141
0
142
0
63
250
421
3358443
0
ENDTAB
0
TABLE
2
LTYPE
5
5
330
0
100
AcDbSymbolTable
70
4
0
LTYPE
5
14
330
5
100
AcDbSymbolTableRecord
100
AcDbLinetypeTableRecord
2
ByBlock
70
0
3

72
65
73
0
40
0
0
LTYPE
5
15
330
5
100
AcDbSymbolTableRecord
100
AcDbLinetypeTableRecord
2
ByLayer
70
0
3

72
65
73
0
40
0
0
LTYPE
5
16
330
5
100
AcDbSymbolTableRecord
100
AcDbLinetypeTableRecord
2
Continuous
70
0
3
Solid line
72
65
73
0
40
0
0
LTYPE
5
32
330
5
100
AcDbSymbolTableRecord
100
AcDbLinetypeTableRecord
2
DOT
70
0
3
Dot . . . . . . . . . . . . . . . . . . . . . .
72
65
73
2
40
6.35
49
0
74
0
49
-6.35
74
0
0
LTYPE
5
33
330
5
100
AcDbSymbolTableRecord
100
AcDbLinetypeTableRecord
2
DOT2
70
0
3
Dot (.5x) .....................................
72
65
73
2
40
3.175
49
0
74
0
49
-3.175
74
0
0
LTYPE
5
34
330
5
100
AcDbSymbolTableRecord
100
AcDbLinetypeTableRecord
2
DOTX2
70
0
3
Dot (2x) .  .  .  .  .  .  .  .  .  .  .  .  .
72
65
73
2
40
12.7
49
0
74
0
49
-12.7
74
0
0
LTYPE
5
35
330
5
100
AcDbSymbolTableRecord
100
AcDbLinetypeTableRecord
2
DASHED
70
0
3
Dot . . . . . . . . . . . . . . . . . . . . . .
72
65
73
2
40
19.05
49
12.7
74
0
49
-6.35
74
0
0
LTYPE
5
36
330
5
100
AcDbSymbolTableRecord
100
AcDbLinetypeTableRecord
2
DASHED2
70
0
3
Dashed (.5x) _ _ _ _ _ _ _ _ _ _ _ _ _ _ _ _ _
72
65
73
2
40
9.525
49
6.35
74
0
49
-3.175
74
0
0
LTYPE
5
37
330
5
100
AcDbSymbolTableRecord
100
AcDbLinetypeTableRecord
2
DASHEDX2
70
0
3
Dashed (2x) ____  ____  ____  ____  ____  ___
72
65
73
2
40
38.1
49
25.4
74
0
49
-12.7
74
0
0
LTYPE
5
38
330
5
100
AcDbSymbolTableRecord
100
AcDbLinetypeTableRecord
2
DASHDOT
70
0
3
Dash dot __ . __ . __ . __ . __ . __ . __ . __
72
65
73
4
40
25.4
49
12.7
74
0
49
-6.35
74
0
49
0
74
0
49
-6.35
74
0
0
LTYPE
5
39
330
5
100
AcDbSymbolTableRecord
100
AcDbLinetypeTableRecord
2
DASHDOT2
70
0
3
Dash dot (.5x) _._._._._._._._._._._._._._._.
72
65
73
4
40
12.7
49
6.35
74
0
49
-3.175
74
0
49
0
74
0
49
-3.175
74
0
0
LTYPE
5
3A
330
5
100
AcDbSymbolTableRecord
100
AcDbLinetypeTableRecord
2
DASHDOTX2
70
0
3
Dash dot (2x) ____  .  ____  .  ____  .  ___
72
65
73
4
40
50.8
49
25.4
74
0
49
-12.7
74
0
49
0
74
0
49
-12.7
74
0
0
LTYPE
5
3B
330
5
100
AcDbSymbolTableRecord
100
AcDbLinetypeTableRecord
2
DIVIDE
70
0
3
Divide ____ . . ____ . . ____ . . ____ . . ____
72
65
73
6
40
31.75
49
12.7
74
0
49
-6.35
74
0
49
0
74
0
49
-6.35
74
0
49
0
74
0
49
-6.35
74
0
0
LTYPE
5
3C
330
5
100
AcDbSymbolTableRecord
100
AcDbLinetypeTableRecord
2
DIVIDE2
70
0
3
Divide (.5x) __..__..__..__..__..__..__..__.._
72
65
73
6
40
15.875
49
6.35
74
0
49
-3.175
74
0
49
0
74
0
49
-3.175
74
0
49
0
74
0
49
-3.175
74
0
0
LTYPE
5
3D
330
5
100
AcDbSymbolTableRecord
100
AcDbLinetypeTableRecord
2
DIVIDEX2
70
0
3
Divide (2x) ________  .  .  ________  .  .  _
72
65
73
6
40
63.5
49
25.4
74
0
49
-12.7
74
0
49
0
74
0
49
-12.7
74
0
49
0
74
0
49
-12.7
74
0
0
LTYPE
5
3E
330
5
100
AcDbSymbolTableRecord
100
AcDbLinetypeTableRecord
2
BORDER
70
0
3
Border __ __ . __ __ . __ __ . __ __ . __ __ .
72
65
73
6
40
44.45
49
12.7
74
0
49
-6.35
74
0
49
12.7
74
0
49
-6.35
74
0
49
0
74
0
49
-6.35
74
0
0
LTYPE
5
3F
330
5
100
AcDbSymbolTableRecord
100
AcDbLinetypeTableRecord
2
BORDER2
70
0
3
Border (.5x) __.__.__.__.__.__.__.__.__.__.__.
72
65
73
6
40
22.225
49
6.35
74
0
49
-3.175
74
0
49
6.35
74
0
49
-3.175
74
0
49
0
74
0
49
-3.175
74
0
0
LTYPE
5
40
330
5
100
AcDbSymbolTableRecord
100
AcDbLinetypeTableRecord
2
BORDERX2
70
0
3
Border (2x) ____  ____  .  ____  ____  .  ___
72
65
73
6
40
88.9
49
25.4
74
0
49
-12.7
74
0
49
25.4
74
0
49
-12.7
74
0
49
0
74
0
49
-12.7
74
0
0
LTYPE
5
41
330
5
100
AcDbSymbolTableRecord
100
AcDbLinetypeTableRecord
2
CENTER
70
0
3
Center ____ _ ____ _ ____ _ ____ _ ____ _ ____
72
65
73
4
40
50.8
49
31.75
74
0
49
-6.35
74
0
49
6.35
74
0
49
-6.35
74
0
0
LTYPE
5
42
330
5
100
AcDbSymbolTableRecord
100
AcDbLinetypeTableRecord
2
CENTER2
70
0
3
Center (.5x) ___ _ ___ _ ___ _ ___ _ ___ _ ___
72
65
73
4
40
28.575
49
19.05
74
0
49
-3.175
74
0
49
3.175
74
0
49
-3.175
74
0
0
LTYPE
5
43
330
5
100
AcDbSymbolTableRecord
100
AcDbLinetypeTableRecord
2
CENTERX2
70
0
3
Center (2x) ________  __  ________  __  _____
72
65
73
4
40
101.6
49
63.5
74
0
49
-12.7
74
0
49
12.7
74
0
49
-12.7
74
0
0
ENDTAB
0
TABLE
2
LAYER
5
2
330
0
100
AcDbSymbolTable
70
1
0
LAYER
5
10
330
2
100
AcDbSymbolTableRecord
100
AcDbLayerTableRecord
2
0
70
0
62
7
6
CONTINUOUS
370
-3
390
F
0
LAYER
5
44
330
2
100
AcDbSymbolTableRecord
100
AcDbLayerTableRecord
2
IV_ARC_CENTERS
70
0
62
7
6
CONTINUOUS
370
50
390
F
0
LAYER
5
45
330
2
100
AcDbSymbolTableRecord
100
AcDbLayerTableRecord
2
IV_OUTER_PROFILE
70
0
62
7
6
CONTINUOUS
370
50
390
F
0
LAYER
5
46
330
2
100
AcDbSymbolTableRecord
100
AcDbLayerTableRecord
2
IV_INTERIOR_PROFILES
70
0
62
7
6
CONTINUOUS
370
50
390
F
0
LAYER
5
47
330
2
100
AcDbSymbolTableRecord
100
AcDbLayerTableRecord
2
IV_FEATURE_PROFILES
70
0
62
7
6
CONTINUOUS
370
100
390
F
0
ENDTAB
0
TABLE
2
STYLE
5
3
330
0
100
AcDbSymbolTable
70
3
0
STYLE
5
48
330
2
100
AcDbSymbolTableRecord
100
AcDbTextStyleTableRecord
2
Standard
70
0
40
0
41
1
50
0
71
0
42
1
3
txt
4

0
ENDTAB
0
TABLE
2
VIEW
5
6
330
0
100
AcDbSymbolTable
70
0
0
ENDTAB
0
TABLE
2
UCS
5
7
330
0
100
AcDbSymbolTable
70
0
0
ENDTAB
0
TABLE
2
APPID
5
9
330
0
100
AcDbSymbolTable
70
1
0
APPID
5
12
330
9
100
AcDbSymbolTableRecord
100
AcDbRegAppTableRecord
2
ACAD
70
0
0
ENDTAB
0
TABLE
2
DIMSTYLE
5
A
330
0
100
AcDbSymbolTable
70
1
100
AcDbDimStyleTable
71
1
0
DIMSTYLE
105
49
330
A
100
AcDbSymbolTableRecord
100
AcDbDimStyleTableRecord
2
Standard
70
0
40
1
41
0.0708661417323
42
0.0625
43
0.38
44
0.18
45
0
46
0
47
0
48
0
140
0.0708661417323
141
0.09
142
0
143
25.4
144
1
145
0
146
1
147
0.09
148
0
71
0
72
0
73
0
74
1
75
0
76
0
77
0
78
0
79
0
170
0
171
2
172
0
173
0
174
0
175
0
176
0
177
0
178
0
179
0
271
4
272
4
273
2
274
2
275
0
276
0
277
2
278
46
279
0
280
0
281
0
282
0
283
1
284
0
285
0
286
0
288
0
289
3
340
Standard
341

371
-2
372
-2
0
ENDTAB
0
TABLE
2
BLOCK_RECORD
5
1
330
0
100
AcDbSymbolTable
70
2
0
BLOCK_RECORD
5
1F
330
1
100
AcDbSymbolTableRecord
100
AcDbBlockTableRecord
2
*Model_Space
70
0
280
1
281
0
0
BLOCK_RECORD
5
1E
330
1
100
AcDbSymbolTableRecord
100
AcDbBlockTableRecord
2
*Paper_Space
70
0
280
1
281
0
0
ENDTAB
0
ENDSEC
0
SECTION
2
BLOCKS
0
BLOCK
5
20
330
1F
100
AcDbEntity
8
0
100
AcDbBlockBegin
2
*Model_Space
70
0
10
0
20
0
30
0
3
*Model_Space
1

0
ENDBLK
5
21
330
1F
100
AcDbEntity
8
0
100
AcDbBlockEnd
0
BLOCK
5
1C
330
1B
100
AcDbEntity
8
0
100
AcDbBlockBegin
2
*Paper_Space
70
0
10
0
20
0
30
0
3
*Paper_Space
1

0
ENDBLK
5
1D
330
1F
100
AcDbEntity
8
0
100
AcDbBlockEnd
0
ENDSEC
0
SECTION
2
ENTITIES
0
LINE
5
4A
100
AcDbEntity
8
IV_OUTER_PROFILE
6
CONTINUOUS
62
7
370
25
100
AcDbLine
10
1.96051878102
20
0.254375753649
11
1.96051878102
21
0.0668757536493
0
LINE
5
4B
100
AcDbEntity
8
IV_OUTER_PROFILE
6
CONTINUOUS
62
7
370
25
100
AcDbLine
10
6.96051878102
20
0.254375753649
11
1.96051878102
21
0.254375753649
0
LINE
5
4C
100
AcDbEntity
8
IV_OUTER_PROFILE
6
CONTINUOUS
62
7
370
25
100
AcDbLine
10
6.96051878102
20
0.0668757536493
11
6.96051878102
21
0.254375753649
0
LINE
5
4D
100
AcDbEntity
8
IV_OUTER_PROFILE
6
CONTINUOUS
62
7
370
25
100
AcDbLine
10
7.96051878102
20
0.0668757536493
11
6.96051878102
21
0.0668757536493
0
LINE
5
4E
100
AcDbEntity
8
IV_OUTER_PROFILE
6
CONTINUOUS
62
7
370
25
100
AcDbLine
10
7.96051878102
20
0.254375753649
11
7.96051878102
21
0.0668757536493
0
LINE
5
4F
100
AcDbEntity
8
IV_OUTER_PROFILE
6
CONTINUOUS
62
7
370
25
100
AcDbLine
10
8.83551878102
20
0.254375753649
11
7.96051878102
21
0.254375753649
0
LINE
5
50
100
AcDbEntity
8
IV_OUTER_PROFILE
6
CONTINUOUS
62
7
370
25
100
AcDbLine
10
8.83551878102
20
13.8793757536
11
8.83551878102
21
0.254375753649
0
LINE
5
51
100
AcDbEntity
8
IV_OUTER_PROFILE
6
CONTINUOUS
62
7
370
25
100
AcDbLine
10
7.96051878102
20
13.8793757536
11
8.83551878102
21
13.8793757536
0
LINE
5
52
100
AcDbEntity
8
IV_OUTER_PROFILE
6
CONTINUOUS
62
7
370
25
100
AcDbLine
10
7.96051878102
20
14.0668757536
11
7.96051878102
21
13.8793757536
0
LINE
5
53
100
AcDbEntity
8
IV_OUTER_PROFILE
6
CONTINUOUS
62
7
370
25
100
AcDbLine
10
6.96051878102
20
14.0668757536
11
7.96051878102
21
14.0668757536
0
LINE
5
54
100
AcDbEntity
8
IV_OUTER_PROFILE
6
CONTINUOUS
62
7
370
25
100
AcDbLine
10
6.96051878102
20
13.8793757536
11
6.96051878102
21
14.0668757536
0
LINE
5
55
100
AcDbEntity
8
IV_OUTER_PROFILE
6
CONTINUOUS
62
7
370
25
100
AcDbLine
10
1.96051878102
20
13.8793757536
11
6.96051878102
21
13.8793757536
0
LINE
5
56
100
AcDbEntity
8
IV_OUTER_PROFILE
6
CONTINUOUS
62
7
370
25
100
AcDbLine
10
1.96051878102
20
14.0668757536
11
1.96051878102
21
13.8793757536
0
LINE
5
57
100
AcDbEntity
8
IV_OUTER_PROFILE
6
CONTINUOUS
62
7
370
25
100
AcDbLine
10
0.960518781018
20
14.0668757536
11
1.96051878102
21
14.0668757536
0
LINE
5
58
100
AcDbEntity
8
IV_OUTER_PROFILE
6
CONTINUOUS
62
7
370
25
100
AcDbLine
10
0.960518781018
20
13.8793757536
11
0.960518781018
21
14.0668757536
0
LINE
5
59
100
AcDbEntity
8
IV_OUTER_PROFILE
6
CONTINUOUS
62
7
370
25
100
AcDbLine
10
0.0855187810181
20
13.8793757536
11
0.960518781018
21
13.8793757536
0
LINE
5
5A
100
AcDbEntity
8
IV_OUTER_PROFILE
6
CONTINUOUS
62
7
370
25
100
AcDbLine
10
0.0855187810181
20
0.254375753649
11
0.0855187810181
21
13.8793757536
0
LINE
5
5B
100
AcDbEntity
8
IV_OUTER_PROFILE
6
CONTINUOUS
62
7
370
25
100
AcDbLine
10
0.960518781018
20
0.254375753649
11
0.0855187810181
21
0.254375753649
0
LINE
5
5C
100
AcDbEntity
8
IV_OUTER_PROFILE
6
CONTINUOUS
62
7
370
25
100
AcDbLine
10
0.960518781018
20
0.0668757536493
11
0.960518781018
21
0.254375753649
0
LINE
5
5D
100
AcDbEntity
8
IV_OUTER_PROFILE
6
CONTINUOUS
62
7
370
25
100
AcDbLine
10
1.96051878102
20
0.0668757536493
11
0.960518781018
21
0.0668757536493
0
CIRCLE
5
5E
100
AcDbEntity
8
IV_INTERIOR_PROFILES
6
CONTINUOUS
62
7
370
25
100
AcDbCircle
10
8.27498728496
20
10.8793757536
40
0.0625
0
CIRCLE
5
5F
100
AcDbEntity
8
IV_INTERIOR_PROFILES
6
CONTINUOUS
62
7
370
25
100
AcDbCircle
10
8.27498728496
20
3.25437575365
40
0.0625
0
LINE
5
60
100
AcDbEntity
8
IV_INTERIOR_PROFILES
6
CONTINUOUS
62
7
370
25
100
AcDbLine
10
8.52498728496
20
4.25437575365
11
8.71051878102
21
4.25437575365
0
LINE
5
61
100
AcDbEntity
8
IV_INTERIOR_PROFILES
6
CONTINUOUS
62
7
370
25
100
AcDbLine
10
8.71051878102
20
4.25437575365
11
8.71051878102
21
2.25437575365
0
LINE
5
62
100
AcDbEntity
8
IV_INTERIOR_PROFILES
6
CONTINUOUS
62
7
370
25
100
AcDbLine
10
8.71051878102
20
2.25437575365
11
8.52498728496
21
2.25437575365
0
LINE
5
63
100
AcDbEntity
8
IV_INTERIOR_PROFILES
6
CONTINUOUS
62
7
370
25
100
AcDbLine
10
8.52498728496
20
2.25437575365
11
8.52498728496
21
4.25437575365
0
LINE
5
64
100
AcDbEntity
8
IV_INTERIOR_PROFILES
6
CONTINUOUS
62
7
370
25
100
AcDbLine
10
8.52498728496
20
11.8793757536
11
8.71051878102
21
11.8793757536
0
LINE
5
65
100
AcDbEntity
8
IV_INTERIOR_PROFILES
6
CONTINUOUS
62
7
370
25
100
AcDbLine
10
8.71051878102
20
11.8793757536
11
8.71051878102
21
9.87937575365
0
LINE
5
66
100
AcDbEntity
8
IV_INTERIOR_PROFILES
6
CONTINUOUS
62
7
370
25
100
AcDbLine
10
8.71051878102
20
9.87937575365
11
8.52498728496
21
9.87937575365
0
LINE
5
67
100
AcDbEntity
8
IV_INTERIOR_PROFILES
6
CONTINUOUS
62
7
370
25
100
AcDbLine
10
8.52498728496
20
9.87937575365
11
8.52498728496
21
11.8793757536
0
CIRCLE
5
68
100
AcDbEntity
8
IV_INTERIOR_PROFILES
6
CONTINUOUS
62
7
370
25
100
AcDbCircle
10
3.71051878102
20
6.06687575365
40
0.0625
0
CIRCLE
5
69
100
AcDbEntity
8
IV_INTERIOR_PROFILES
6
CONTINUOUS
62
7
370
25
100
AcDbCircle
10
1.71051878102
20
8.06687575365
40
0.0625
0
CIRCLE
5
6A
100
AcDbEntity
8
IV_INTERIOR_PROFILES
6
CONTINUOUS
62
7
370
25
100
AcDbCircle
10
3.71051878102
20
8.06687575365
40
0.0625
0
CIRCLE
5
6B
100
AcDbEntity
8
IV_INTERIOR_PROFILES
6
CONTINUOUS
62
7
370
25
100
AcDbCircle
10
1.71051878102
20
6.06687575365
40
0.0625
0
CIRCLE
5
6C
100
AcDbEntity
8
IV_INTERIOR_PROFILES
6
CONTINUOUS
62
7
370
25
100
AcDbCircle
10
7.46051878102
20
0.484375753649
40
0.0625
0
CIRCLE
5
6D
100
AcDbEntity
8
IV_INTERIOR_PROFILES
6
CONTINUOUS
62
7
370
25
100
AcDbCircle
10
0.646050277081
20
10.8793757536
40
0.0625
0
CIRCLE
5
6E
100
AcDbEntity
8
IV_INTERIOR_PROFILES
6
CONTINUOUS
62
7
370
25
100
AcDbCircle
10
0.710518781018
20
13.6493757536
40
0.0625
0
CIRCLE
5
6F
100
AcDbEntity
8
IV_INTERIOR_PROFILES
6
CONTINUOUS
62
7
370
25
100
AcDbCircle
10
0.710518781018
20
0.484375753649
40
0.0625
0
CIRCLE
5
70
100
AcDbEntity
8
IV_INTERIOR_PROFILES
6
CONTINUOUS
62
7
370
25
100
AcDbCircle
10
0.646050277081
20
3.25437575365
40
0.0625
0
CIRCLE
5
71
100
AcDbEntity
8
IV_INTERIOR_PROFILES
6
CONTINUOUS
62
7
370
25
100
AcDbCircle
10
7.46051878102
20
13.6493757536
40
0.0625
0
LINE
5
72
100
AcDbEntity
8
IV_INTERIOR_PROFILES
6
CONTINUOUS
62
7
370
25
100
AcDbLine
10
6.33551878102
20
4.06687575365
11
6.83551878102
21
4.06687575365
0
LINE
5
73
100
AcDbEntity
8
IV_INTERIOR_PROFILES
6
CONTINUOUS
62
7
370
25
100
AcDbLine
10
6.83551878102
20
4.06687575365
11
6.83551878102
21
3.94187575365
0
LINE
5
74
100
AcDbEntity
8
IV_INTERIOR_PROFILES
6
CONTINUOUS
62
7
370
25
100
AcDbLine
10
6.83551878102
20
3.94187575365
11
6.33551878102
21
3.94187575365
0
LINE
5
75
100
AcDbEntity
8
IV_INTERIOR_PROFILES
6
CONTINUOUS
62
7
370
25
100
AcDbLine
10
6.33551878102
20
3.94187575365
11
6.33551878102
21
4.06687575365
0
LINE
5
76
100
AcDbEntity
8
IV_INTERIOR_PROFILES
6
CONTINUOUS
62
7
370
25
100
AcDbLine
10
6.33551878102
20
10.1918757536
11
6.83551878102
21
10.1918757536
0
LINE
5
77
100
AcDbEntity
8
IV_INTERIOR_PROFILES
6
CONTINUOUS
62
7
370
25
100
AcDbLine
10
6.83551878102
20
10.1918757536
11
6.83551878102
21
10.0668757536
0
LINE
5
78
100
AcDbEntity
8
IV_INTERIOR_PROFILES
6
CONTINUOUS
62
7
370
25
100
AcDbLine
10
6.83551878102
20
10.0668757536
11
6.33551878102
21
10.0668757536
0
LINE
5
79
100
AcDbEntity
8
IV_INTERIOR_PROFILES
6
CONTINUOUS
62
7
370
25
100
AcDbLine
10
6.33551878102
20
10.0668757536
11
6.33551878102
21
10.1918757536
0
CIRCLE
5
7A
100
AcDbEntity
8
IV_INTERIOR_PROFILES
6
CONTINUOUS
62
7
370
25
100
AcDbCircle
10
5.83551878102
20
1.25437575365
40
0.0625
0
CIRCLE
5
7B
100
AcDbEntity
8
IV_INTERIOR_PROFILES
6
CONTINUOUS
62
7
370
25
100
AcDbCircle
10
4.33551878102
20
12.8793757536
40
0.0625
0
CIRCLE
5
7C
100
AcDbEntity
8
IV_INTERIOR_PROFILES
6
CONTINUOUS
62
7
370
25
100
AcDbCircle
10
5.83551878102
20
12.8793757536
40
0.0625
0
CIRCLE
5
7D
100
AcDbEntity
8
IV_INTERIOR_PROFILES
6
CONTINUOUS
62
7
370
25
100
AcDbCircle
10
4.33551878102
20
1.25437575365
40
0.0625
0
LINE
5
7E
100
AcDbEntity
8
IV_OUTER_PROFILE
6
CONTINUOUS
62
7
370
25
100
AcDbLine
10
9.18709320087
20
13.7709860032
11
12.7495932009
21
13.7709860032
0
LINE
5
7F
100
AcDbEntity
8
IV_OUTER_PROFILE
6
CONTINUOUS
62
7
370
25
100
AcDbLine
10
12.7495932009
20
0.145986003221
11
9.18709320087
21
0.145986003221
0
CIRCLE
5
80
100
AcDbEntity
8
IV_INTERIOR_PROFILES
6
CONTINUOUS
62
7
370
25
100
AcDbCircle
10
9.39009320087
20
3.14598600322
40
0.0625
0
CIRCLE
5
81
100
AcDbEntity
8
IV_INTERIOR_PROFILES
6
CONTINUOUS
62
7
370
25
100
AcDbCircle
10
12.5465932009
20
10.7709860032
40
0.0625
0
CIRCLE
5
82
100
AcDbEntity
8
IV_INTERIOR_PROFILES
6
CONTINUOUS
62
7
370
25
100
AcDbCircle
10
9.39009320087
20
10.7709860032
40
0.0625
0
CIRCLE
5
83
100
AcDbEntity
8
IV_INTERIOR_PROFILES
6
CONTINUOUS
62
7
370
25
100
AcDbCircle
10
12.5465932009
20
3.14598600322
40
0.0625
0
CIRCLE
5
84
100
AcDbEntity
8
IV_INTERIOR_PROFILES
6
CONTINUOUS
62
7
370
25
100
AcDbCircle
10
9.71834320087
20
5.70848600322
40
0.0625
0
CIRCLE
5
85
100
AcDbEntity
8
IV_INTERIOR_PROFILES
6
CONTINUOUS
62
7
370
25
100
AcDbCircle
10
12.2183432009
20
8.20848600322
40
0.0625
0
CIRCLE
5
86
100
AcDbEntity
8
IV_INTERIOR_PROFILES
6
CONTINUOUS
62
7
370
25
100
AcDbCircle
10
9.71834320087
20
8.20848600322
40
0.0625
0
CIRCLE
5
87
100
AcDbEntity
8
IV_INTERIOR_PROFILES
6
CONTINUOUS
62
7
370
25
100
AcDbCircle
10
12.2183432009
20
5.70848600322
40
0.0625
0
LINE
5
88
100
AcDbEntity
8
IV_OUTER_PROFILE
6
CONTINUOUS
62
7
370
25
100
AcDbLine
10
12.7495932009
20
13.7709860032
11
12.7495932009
21
0.145986003221
0
LINE
5
89
100
AcDbEntity
8
IV_OUTER_PROFILE
6
CONTINUOUS
62
7
370
25
100
AcDbLine
10
9.18709320087
20
0.145986003221
11
9.18709320087
21
13.7709860032
0
LINE
5
8A
100
AcDbEntity
8
IV_OUTER_PROFILE
6
CONTINUOUS
62
7
370
25
100
AcDbLine
10
13.175249728
20
13.7372614292
11
16.737749728
21
13.7372614292
0
LINE
5
8B
100
AcDbEntity
8
IV_OUTER_PROFILE
6
CONTINUOUS
62
7
370
25
100
AcDbLine
10
16.737749728
20
0.11226142916
11
13.175249728
21
0.11226142916
0
CIRCLE
5
8C
100
AcDbEntity
8
IV_INTERIOR_PROFILES
6
CONTINUOUS
62
7
370
25
100
AcDbCircle
10
13.378249728
20
3.11226142916
40
0.0625
0
CIRCLE
5
8D
100
AcDbEntity
8
IV_INTERIOR_PROFILES
6
CONTINUOUS
62
7
370
25
100
AcDbCircle
10
16.534749728
20
10.7372614292
40
0.0625
0
CIRCLE
5
8E
100
AcDbEntity
8
IV_INTERIOR_PROFILES
6
CONTINUOUS
62
7
370
25
100
AcDbCircle
10
13.378249728
20
10.7372614292
40
0.0625
0
CIRCLE
5
8F
100
AcDbEntity
8
IV_INTERIOR_PROFILES
6
CONTINUOUS
62
7
370
25
100
AcDbCircle
10
16.534749728
20
3.11226142916
40
0.0625
0
LINE
5
90
100
AcDbEntity
8
IV_OUTER_PROFILE
6
CONTINUOUS
62
7
370
25
100
AcDbLine
10
16.737749728
20
13.7372614292
11
16.737749728
21
11.7372614292
0
LINE
5
91
100
AcDbEntity
8
IV_OUTER_PROFILE
6
CONTINUOUS
62
7
370
25
100
AcDbLine
10
13.175249728
20
0.11226142916
11
13.175249728
21
2.11226142916
0
LINE
5
92
100
AcDbEntity
8
IV_OUTER_PROFILE
6
CONTINUOUS
62
7
370
25
100
AcDbLine
10
12.925249728
20
4.11226142916
11
13.175249728
21
4.11226142916
0
LINE
5
93
100
AcDbEntity
8
IV_OUTER_PROFILE
6
CONTINUOUS
62
7
370
25
100
AcDbLine
10
12.925249728
20
2.11226142916
11
12.925249728
21
4.11226142916
0
LINE
5
94
100
AcDbEntity
8
IV_OUTER_PROFILE
6
CONTINUOUS
62
7
370
25
100
AcDbLine
10
13.175249728
20
2.11226142916
11
12.925249728
21
2.11226142916
0
LINE
5
95
100
AcDbEntity
8
IV_OUTER_PROFILE
6
CONTINUOUS
62
7
370
25
100
AcDbLine
10
13.175249728
20
0.11226142916
11
13.175249728
21
2.11226142916
0
LINE
5
96
100
AcDbEntity
8
IV_OUTER_PROFILE
6
CONTINUOUS
62
7
370
25
100
AcDbLine
10
16.737749728
20
2.11226142916
11
16.737749728
21
0.11226142916
0
LINE
5
97
100
AcDbEntity
8
IV_OUTER_PROFILE
6
CONTINUOUS
62
7
370
25
100
AcDbLine
10
16.925249728
20
2.11226142916
11
16.737749728
21
2.11226142916
0
LINE
5
98
100
AcDbEntity
8
IV_OUTER_PROFILE
6
CONTINUOUS
62
7
370
25
100
AcDbLine
10
16.925249728
20
4.11226142916
11
16.925249728
21
2.11226142916
0
LINE
5
99
100
AcDbEntity
8
IV_OUTER_PROFILE
6
CONTINUOUS
62
7
370
25
100
AcDbLine
10
16.737749728
20
4.11226142916
11
16.925249728
21
4.11226142916
0
LINE
5
9A
100
AcDbEntity
8
IV_OUTER_PROFILE
6
CONTINUOUS
62
7
370
25
100
AcDbLine
10
16.737749728
20
9.73726142916
11
16.737749728
21
4.11226142916
0
LINE
5
9B
100
AcDbEntity
8
IV_OUTER_PROFILE
6
CONTINUOUS
62
7
370
25
100
AcDbLine
10
16.925249728
20
9.73726142916
11
16.737749728
21
9.73726142916
0
LINE
5
9C
100
AcDbEntity
8
IV_OUTER_PROFILE
6
CONTINUOUS
62
7
370
25
100
AcDbLine
10
16.925249728
20
11.7372614292
11
16.925249728
21
9.73726142916
0
LINE
5
9D
100
AcDbEntity
8
IV_OUTER_PROFILE
6
CONTINUOUS
62
7
370
25
100
AcDbLine
10
16.737749728
20
11.7372614292
11
16.925249728
21
11.7372614292
0
LINE
5
9E
100
AcDbEntity
8
IV_OUTER_PROFILE
6
CONTINUOUS
62
7
370
25
100
AcDbLine
10
12.925249728
20
11.7372614292
11
13.175249728
21
11.7372614292
0
LINE
5
9F
100
AcDbEntity
8
IV_OUTER_PROFILE
6
CONTINUOUS
62
7
370
25
100
AcDbLine
10
12.925249728
20
9.73726142916
11
12.925249728
21
11.7372614292
0
LINE
5
A0
100
AcDbEntity
8
IV_OUTER_PROFILE
6
CONTINUOUS
62
7
370
25
100
AcDbLine
10
13.175249728
20
9.73726142916
11
12.925249728
21
9.73726142916
0
LINE
5
A1
100
AcDbEntity
8
IV_OUTER_PROFILE
6
CONTINUOUS
62
7
370
25
100
AcDbLine
10
13.175249728
20
4.11226142916
11
13.175249728
21
9.73726142916
0
LINE
5
A2
100
AcDbEntity
8
IV_OUTER_PROFILE
6
CONTINUOUS
62
7
370
25
100
AcDbLine
10
13.175249728
20
11.7372614292
11
13.175249728
21
13.7372614292
0
CIRCLE
5
A3
100
AcDbEntity
8
IV_INTERIOR_PROFILES
6
CONTINUOUS
62
7
370
25
100
AcDbCircle
10
13.925249728
20
12.9872614292
40
0.25
0
CIRCLE
5
A4
100
AcDbEntity
8
IV_INTERIOR_PROFILES
6
CONTINUOUS
62
7
370
25
100
AcDbCircle
10
13.925249728
20
11.9872614292
40
0.25
0
CIRCLE
5
A5
100
AcDbEntity
8
IV_INTERIOR_PROFILES
6
CONTINUOUS
62
7
370
25
100
AcDbCircle
10
15.987749728
20
12.9872614292
40
0.25
0
CIRCLE
5
A6
100
AcDbEntity
8
IV_INTERIOR_PROFILES
6
CONTINUOUS
62
7
370
25
100
AcDbCircle
10
15.987749728
20
0.86226142916
40
0.25
0
ARC
5
A7
100
AcDbEntity
8
IV_OUTER_PROFILE
6
CONTINUOUS
62
7
370
25
100
AcDbCircle
10
19.153099651
20
12.7024119163
40
0.5
100
AcDbArc
50
26.5650511771
51
90
0
LINE
5
A8
100
AcDbEntity
8
IV_OUTER_PROFILE
6
CONTINUOUS
62
7
370
25
100
AcDbLine
10
21.4093302408
20
9.30798472531
11
19.6003132465
21
12.9260187141
0
ARC
5
A9
100
AcDbEntity
8
IV_OUTER_PROFILE
6
CONTINUOUS
62
7
370
25
100
AcDbCircle
10
20.9621166453
20
9.08437792755
40
0.5
100
AcDbArc
50
360
51
26.5650511771
0
LINE
5
AA
100
AcDbEntity
8
IV_OUTER_PROFILE
6
CONTINUOUS
62
7
370
25
100
AcDbLine
10
21.4621166453
20
0.702411916331
11
21.4621166453
21
9.08437792755
0
ARC
5
AB
100
AcDbEntity
8
IV_OUTER_PROFILE
6
CONTINUOUS
62
7
370
25
100
AcDbCircle
10
20.9621166453
20
0.702411916331
40
0.5
100
AcDbArc
50
270
51
360
0
LINE
5
AC
100
AcDbEntity
8
IV_OUTER_PROFILE
6
CONTINUOUS
62
7
370
25
100
AcDbLine
10
17.4621166453
20
0.202411916331
11
20.9621166453
21
0.202411916331
0
LINE
5
AD
100
AcDbEntity
8
IV_OUTER_PROFILE
6
CONTINUOUS
62
7
370
25
100
AcDbLine
10
17.4621166453
20
1.20241191633
11
17.4621166453
21
0.202411916331
0
LINE
5
AE
100
AcDbEntity
8
IV_OUTER_PROFILE
6
CONTINUOUS
62
7
370
25
100
AcDbLine
10
17.2121166453
20
1.20241191633
11
17.4621166453
21
1.20241191633
0
LINE
5
AF
100
AcDbEntity
8
IV_OUTER_PROFILE
6
CONTINUOUS
62
7
370
25
100
AcDbLine
10
17.2121166453
20
3.20241191633
11
17.2121166453
21
1.20241191633
0
LINE
5
B0
100
AcDbEntity
8
IV_OUTER_PROFILE
6
CONTINUOUS
62
7
370
25
100
AcDbLine
10
17.4621166453
20
3.20241191633
11
17.2121166453
21
3.20241191633
0
LINE
5
B1
100
AcDbEntity
8
IV_OUTER_PROFILE
6
CONTINUOUS
62
7
370
25
100
AcDbLine
10
17.4621166453
20
9.20241191633
11
17.4621166453
21
3.20241191633
0
LINE
5
B2
100
AcDbEntity
8
IV_OUTER_PROFILE
6
CONTINUOUS
62
7
370
25
100
AcDbLine
10
17.2121166453
20
11.2024119163
11
17.2121166453
21
9.20241191633
0
LINE
5
B3
100
AcDbEntity
8
IV_OUTER_PROFILE
6
CONTINUOUS
62
7
370
25
100
AcDbLine
10
17.4621166453
20
11.2024119163
11
17.2121166453
21
11.2024119163
0
LINE
5
B4
100
AcDbEntity
8
IV_OUTER_PROFILE
6
CONTINUOUS
62
7
370
25
100
AcDbLine
10
17.4621166453
20
13.2024119163
11
17.4621166453
21
11.2024119163
0
LINE
5
B5
100
AcDbEntity
8
IV_OUTER_PROFILE
6
CONTINUOUS
62
7
370
25
100
AcDbLine
10
19.153099651
20
13.2024119163
11
17.4621166453
21
13.2024119163
0
CIRCLE
5
B6
100
AcDbEntity
8
IV_FEATURE_PROFILES
6
CONTINUOUS
62
7
370
25
100
AcDbCircle
10
20.2911166453
20
2.20241191633
40
0.236220472441
0
CIRCLE
5
B7
100
AcDbEntity
8
IV_FEATURE_PROFILES
6
CONTINUOUS
62
7
370
25
100
AcDbCircle
10
19.9621166453
20
2.95241191633
40
0.0590551181102
0
CIRCLE
5
B8
100
AcDbEntity
8
IV_FEATURE_PROFILES
6
CONTINUOUS
62
7
370
25
100
AcDbCircle
10
19.9621166453
20
1.45241191633
40
0.0590551181102
0
LINE
5
B9
100
AcDbEntity
8
IV_INTERIOR_PROFILES
6
CONTINUOUS
62
7
370
25
100
AcDbLine
10
21.2101481414
20
8.20241191633
11
21.0324906611
21
8.20241191633
0
LINE
5
BA
100
AcDbEntity
8
IV_INTERIOR_PROFILES
6
CONTINUOUS
62
7
370
25
100
AcDbLine
10
21.0324906611
20
8.20241191633
11
21.0324906611
21
7.20241191633
0
LINE
5
BB
100
AcDbEntity
8
IV_INTERIOR_PROFILES
6
CONTINUOUS
62
7
370
25
100
AcDbLine
10
21.0324906611
20
7.20241191633
11
21.2101481414
21
7.20241191633
0
LINE
5
BC
100
AcDbEntity
8
IV_INTERIOR_PROFILES
6
CONTINUOUS
62
7
370
25
100
AcDbLine
10
21.2101481414
20
7.20241191633
11
21.2101481414
21
8.20241191633
0
LINE
5
BD
100
AcDbEntity
8
IV_INTERIOR_PROFILES
6
CONTINUOUS
62
7
370
25
100
AcDbLine
10
21.2101481414
20
1.20241191633
11
21.2101481414
21
2.20241191633
0
LINE
5
BE
100
AcDbEntity
8
IV_INTERIOR_PROFILES
6
CONTINUOUS
62
7
370
25
100
AcDbLine
10
21.2101481414
20
2.20241191633
11
21.0324906611
21
2.20241191633
0
LINE
5
BF
100
AcDbEntity
8
IV_INTERIOR_PROFILES
6
CONTINUOUS
62
7
370
25
100
AcDbLine
10
21.0324906611
20
2.20241191633
11
21.0324906611
21
1.20241191633
0
LINE
5
C0
100
AcDbEntity
8
IV_INTERIOR_PROFILES
6
CONTINUOUS
62
7
370
25
100
AcDbLine
10
21.0324906611
20
1.20241191633
11
21.2101481414
21
1.20241191633
0
LINE
5
C1
100
AcDbEntity
8
IV_OUTER_PROFILE
6
CONTINUOUS
62
7
370
25
100
AcDbLine
10
17.4621166453
20
9.20241191633
11
17.4621166453
21
3.20241191633
0
CIRCLE
5
C2
100
AcDbEntity
8
IV_FEATURE_PROFILES
6
CONTINUOUS
62
7
370
25
100
AcDbCircle
10
20.7824906611
20
0.952411916331
40
0.0625
0
CIRCLE
5
C3
100
AcDbEntity
8
IV_FEATURE_PROFILES
6
CONTINUOUS
62
7
370
25
100
AcDbCircle
10
17.6651166453
20
6.20241191633
40
0.0625
0
CIRCLE
5
C4
100
AcDbEntity
8
IV_FEATURE_PROFILES
6
CONTINUOUS
62
7
370
25
100
AcDbCircle
10
17.6651166453
20
2.20241191633
40
0.0625
0
CIRCLE
5
C5
100
AcDbEntity
8
IV_FEATURE_PROFILES
6
CONTINUOUS
62
7
370
25
100
AcDbCircle
10
17.6651166453
20
10.2024119163
40
0.0625
0
CIRCLE
5
C6
100
AcDbEntity
8
IV_FEATURE_PROFILES
6
CONTINUOUS
62
7
370
25
100
AcDbCircle
10
20.7824906611
20
7.70241191633
40
0.0625
0
LINE
5
C7
100
AcDbEntity
8
IV_OUTER_PROFILE
6
CONTINUOUS
62
7
370
25
100
AcDbLine
10
17.2121166453
20
9.20241191633
11
17.4621166453
21
9.20241191633
0
ARC
5
C8
100
AcDbEntity
8
IV_OUTER_PROFILE
6
CONTINUOUS
62
7
370
25
100
AcDbCircle
10
12.6240966938
20
16.3135762495
40
0.5
100
AcDbArc
50
360
51
63.4349488229
0
LINE
5
C9
100
AcDbEntity
8
IV_OUTER_PROFILE
6
CONTINUOUS
62
7
370
25
100
AcDbLine
10
9.22966950276
20
18.5698068394
11
12.8477034915
21
16.760789845
0
ARC
5
CA
100
AcDbEntity
8
IV_OUTER_PROFILE
6
CONTINUOUS
62
7
370
25
100
AcDbCircle
10
9.006062705
20
18.1225932439
40
0.5
100
AcDbArc
50
63.4349488229
51
90
0
LINE
5
CB
100
AcDbEntity
8
IV_OUTER_PROFILE
6
CONTINUOUS
62
7
370
25
100
AcDbLine
10
0.624096693784
20
18.6225932439
11
9.006062705
21
18.6225932439
0
ARC
5
CC
100
AcDbEntity
8
IV_OUTER_PROFILE
6
CONTINUOUS
62
7
370
25
100
AcDbCircle
10
0.624096693784
20
18.1225932439
40
0.5
100
AcDbArc
50
90
51
180
0
LINE
5
CD
100
AcDbEntity
8
IV_OUTER_PROFILE
6
CONTINUOUS
62
7
370
25
100
AcDbLine
10
0.124096693784
20
14.6225932439
11
0.124096693784
21
18.1225932439
0
LINE
5
CE
100
AcDbEntity
8
IV_OUTER_PROFILE
6
CONTINUOUS
62
7
370
25
100
AcDbLine
10
1.12409669378
20
14.6225932439
11
0.124096693784
21
14.6225932439
0
LINE
5
CF
100
AcDbEntity
8
IV_OUTER_PROFILE
6
CONTINUOUS
62
7
370
25
100
AcDbLine
10
1.12409669378
20
14.3725932439
11
1.12409669378
21
14.6225932439
0
LINE
5
D0
100
AcDbEntity
8
IV_OUTER_PROFILE
6
CONTINUOUS
62
7
370
25
100
AcDbLine
10
3.12409669378
20
14.3725932439
11
1.12409669378
21
14.3725932439
0
LINE
5
D1
100
AcDbEntity
8
IV_OUTER_PROFILE
6
CONTINUOUS
62
7
370
25
100
AcDbLine
10
3.12409669378
20
14.6225932439
11
3.12409669378
21
14.3725932439
0
LINE
5
D2
100
AcDbEntity
8
IV_OUTER_PROFILE
6
CONTINUOUS
62
7
370
25
100
AcDbLine
10
9.12409669378
20
14.6225932439
11
3.12409669378
21
14.6225932439
0
LINE
5
D3
100
AcDbEntity
8
IV_OUTER_PROFILE
6
CONTINUOUS
62
7
370
25
100
AcDbLine
10
11.1240966938
20
14.3725932439
11
9.12409669378
21
14.3725932439
0
LINE
5
D4
100
AcDbEntity
8
IV_OUTER_PROFILE
6
CONTINUOUS
62
7
370
25
100
AcDbLine
10
11.1240966938
20
14.6225932439
11
11.1240966938
21
14.3725932439
0
LINE
5
D5
100
AcDbEntity
8
IV_OUTER_PROFILE
6
CONTINUOUS
62
7
370
25
100
AcDbLine
10
13.1240966938
20
14.6225932439
11
11.1240966938
21
14.6225932439
0
LINE
5
D6
100
AcDbEntity
8
IV_OUTER_PROFILE
6
CONTINUOUS
62
7
370
25
100
AcDbLine
10
13.1240966938
20
16.3135762495
11
13.1240966938
21
14.6225932439
0
CIRCLE
5
D7
100
AcDbEntity
8
IV_FEATURE_PROFILES
6
CONTINUOUS
62
7
370
25
100
AcDbCircle
10
2.12409669378
20
17.4515932439
40
0.236220472441
0
CIRCLE
5
D8
100
AcDbEntity
8
IV_FEATURE_PROFILES
6
CONTINUOUS
62
7
370
25
100
AcDbCircle
10
2.87409669378
20
17.1225932439
40
0.0590551181102
0
CIRCLE
5
D9
100
AcDbEntity
8
IV_FEATURE_PROFILES
6
CONTINUOUS
62
7
370
25
100
AcDbCircle
10
1.37409669378
20
17.1225932439
40
0.0590551181102
0
LINE
5
DA
100
AcDbEntity
8
IV_INTERIOR_PROFILES
6
CONTINUOUS
62
7
370
25
100
AcDbLine
10
8.12409669378
20
18.37062474
11
8.12409669378
21
18.1929672596
0
LINE
5
DB
100
AcDbEntity
8
IV_INTERIOR_PROFILES
6
CONTINUOUS
62
7
370
25
100
AcDbLine
10
8.12409669378
20
18.1929672596
11
7.12409669378
21
18.1929672596
0
LINE
5
DC
100
AcDbEntity
8
IV_INTERIOR_PROFILES
6
CONTINUOUS
62
7
370
25
100
AcDbLine
10
7.12409669378
20
18.1929672596
11
7.12409669378
21
18.37062474
0
LINE
5
DD
100
AcDbEntity
8
IV_INTERIOR_PROFILES
6
CONTINUOUS
62
7
370
25
100
AcDbLine
10
7.12409669378
20
18.37062474
11
8.12409669378
21
18.37062474
0
LINE
5
DE
100
AcDbEntity
8
IV_INTERIOR_PROFILES
6
CONTINUOUS
62
7
370
25
100
AcDbLine
10
1.12409669378
20
18.37062474
11
2.12409669378
21
18.37062474
0
LINE
5
DF
100
AcDbEntity
8
IV_INTERIOR_PROFILES
6
CONTINUOUS
62
7
370
25
100
AcDbLine
10
2.12409669378
20
18.37062474
11
2.12409669378
21
18.1929672596
0
LINE
5
E0
100
AcDbEntity
8
IV_INTERIOR_PROFILES
6
CONTINUOUS
62
7
370
25
100
AcDbLine
10
2.12409669378
20
18.1929672596
11
1.12409669378
21
18.1929672596
0
LINE
5
E1
100
AcDbEntity
8
IV_INTERIOR_PROFILES
6
CONTINUOUS
62
7
370
25
100
AcDbLine
10
1.12409669378
20
18.1929672596
11
1.12409669378
21
18.37062474
0
LINE
5
E2
100
AcDbEntity
8
IV_OUTER_PROFILE
6
CONTINUOUS
62
7
370
25
100
AcDbLine
10
9.12409669378
20
14.6225932439
11
3.12409669378
21
14.6225932439
0
CIRCLE
5
E3
100
AcDbEntity
8
IV_FEATURE_PROFILES
6
CONTINUOUS
62
7
370
25
100
AcDbCircle
10
0.874096693784
20
17.9429672596
40
0.0625
0
CIRCLE
5
E4
100
AcDbEntity
8
IV_FEATURE_PROFILES
6
CONTINUOUS
62
7
370
25
100
AcDbCircle
10
6.12409669378
20
14.8255932439
40
0.0625
0
CIRCLE
5
E5
100
AcDbEntity
8
IV_FEATURE_PROFILES
6
CONTINUOUS
62
7
370
25
100
AcDbCircle
10
2.12409669378
20
14.8255932439
40
0.0625
0
CIRCLE
5
E6
100
AcDbEntity
8
IV_FEATURE_PROFILES
6
CONTINUOUS
62
7
370
25
100
AcDbCircle
10
10.1240966938
20
14.8255932439
40
0.0625
0
CIRCLE
5
E7
100
AcDbEntity
8
IV_FEATURE_PROFILES
6
CONTINUOUS
62
7
370
25
100
AcDbCircle
10
7.62409669378
20
17.9429672596
40
0.0625
0
LINE
5
E8
100
AcDbEntity
8
IV_OUTER_PROFILE
6
CONTINUOUS
62
7
370
25
100
AcDbLine
10
9.12409669378
20
14.3725932439
11
9.12409669378
21
14.6225932439
0
CIRCLE
5
E9
100
AcDbEntity
8
IV_INTERIOR_PROFILES
6
ByLayer
62
256
370
-1
100
AcDbCircle
10
16.2522315879
20
16.6167800754
40
0.055
0
CIRCLE
5
EA
100
AcDbEntity
8
IV_INTERIOR_PROFILES
6
ByLayer
62
256
370
-1
100
AcDbCircle
10
15.8186962904
20
16.1841741392
40
0.055
0
CIRCLE
5
EB
100
AcDbEntity
8
IV_INTERIOR_PROFILES
6
ByLayer
62
256
370
-1
100
AcDbCircle
10
15.8196256517
20
17.0503153728
40
0.055
0
CIRCLE
5
EC
100
AcDbEntity
8
IV_INTERIOR_PROFILES
6
ByLayer
62
256
370
-1
100
AcDbCircle
10
15.3860903542
20
16.6177094366
40
0.055
0
CIRCLE
5
ED
100
AcDbEntity
8
IV_INTERIOR_PROFILES
6
ByLayer
62
256
370
-1
100
AcDbCircle
10
17.2498874354
20
14.4975981446
40
0.125
0
CIRCLE
5
EE
100
AcDbEntity
8
IV_INTERIOR_PROFILES
6
ByLayer
62
256
370
-1
100
AcDbCircle
10
16.2498880111
20
14.4986711345
40
0.125
0
CIRCLE
5
EF
100
AcDbEntity
8
IV_INTERIOR_PROFILES
6
ByLayer
62
256
370
-1
100
AcDbCircle
10
15.3838885096
20
14.4996003437
40
0.125
0
CIRCLE
5
F0
100
AcDbEntity
8
IV_INTERIOR_PROFILES
6
ByLayer
62
256
370
-1
100
AcDbCircle
10
14.3838890852
20
14.5006733335
40
0.125
0
ARC
5
F1
100
AcDbEntity
8
IV_OUTER_PROFILE
6
ByLayer
62
256
370
-1
100
AcDbCircle
10
17.3067532789
20
14.3725370562
40
0.375
100
AcDbArc
50
269.938522199
51
359.938522199
0
LINE
5
F2
100
AcDbEntity
8
IV_OUTER_PROFILE
6
ByLayer
62
256
370
-1
100
AcDbLine
10
17.3063509077
20
13.997537272
11
14.3263526231
21
14.0007347818
0
LINE
5
F3
100
AcDbEntity
8
IV_OUTER_PROFILE
6
ByLayer
62
256
370
-1
100
AcDbLine
10
17.682225144
20
14.8121022841
11
17.681753063
21
14.372134685
0
ARC
5
F4
100
AcDbEntity
8
IV_OUTER_PROFILE
6
ByLayer
62
256
370
-1
100
AcDbCircle
10
17.3072253599
20
14.8125046553
40
0.375
100
AcDbArc
50
359.938522199
51
52.4637417705
0
LINE
5
F5
100
AcDbEntity
8
IV_OUTER_PROFILE
6
ByLayer
62
256
370
-1
100
AcDbLine
10
16.7130991823
20
15.7418982325
11
17.5356991204
21
15.1098676334
0
ARC
5
F6
100
AcDbEntity
8
IV_OUTER_PROFILE
6
ByLayer
62
256
370
-1
100
AcDbCircle
10
16.9415729428
20
16.0392612106
40
0.375
100
AcDbArc
50
179.938522199
51
232.46374177
0
LINE
5
F7
100
AcDbEntity
8
IV_OUTER_PROFILE
6
ByLayer
62
256
370
-1
100
AcDbLine
10
16.5676345392
20
17.0288434632
11
16.5665731587
21
16.0396635818
0
ARC
5
F8
100
AcDbEntity
8
IV_OUTER_PROFILE
6
ByLayer
62
256
370
-1
100
AcDbCircle
10
16.1926347551
20
17.0292458344
40
0.375
100
AcDbArc
50
359.938522199
51
89.9385221985
0
LINE
5
F9
100
AcDbEntity
8
IV_OUTER_PROFILE
6
ByLayer
62
256
370
-1
100
AcDbLine
10
15.4469745637
20
17.4050461365
11
16.1930371263
21
17.4042456185
0
ARC
5
FA
100
AcDbEntity
8
IV_OUTER_PROFILE
6
ByLayer
62
256
370
-1
100
AcDbCircle
10
15.4465721925
20
17.0300463524
40
0.375
100
AcDbArc
50
89.9385221985
51
179.938522199
0
LINE
5
FB
100
AcDbEntity
8
IV_OUTER_PROFILE
6
ByLayer
62
256
370
-1
100
AcDbLine
10
15.0705110278
20
16.0412688422
11
15.0715724083
21
17.0304487236
0
ARC
5
FC
100
AcDbEntity
8
IV_OUTER_PROFILE
6
ByLayer
62
256
370
-1
100
AcDbCircle
10
14.6955112436
20
16.0416712134
40
0.375
100
AcDbArc
50
307.413302627
51
359.938522199
0
LINE
5
FD
100
AcDbEntity
8
IV_OUTER_PROFILE
6
ByLayer
62
256
370
-1
100
AcDbLine
10
14.0993919755
20
15.1135547582
11
14.9233463435
21
15.7438186202
0
ARC
5
FE
100
AcDbEntity
8
IV_OUTER_PROFILE
6
ByLayer
62
256
370
-1
100
AcDbCircle
10
14.3272270753
20
14.815702165
40
0.375
100
AcDbArc
50
127.413302627
51
179.938522199
0
LINE
5
FF
100
AcDbEntity
8
IV_OUTER_PROFILE
6
ByLayer
62
256
370
-1
100
AcDbLine
10
13.9517552102
20
14.3761369371
11
13.9522272912
21
14.8161045362
0
ARC
5
100
100
AcDbEntity
8
IV_OUTER_PROFILE
6
ByLayer
62
256
370
-1
100
AcDbCircle
10
14.3267549943
20
14.3757345659
40
0.375
100
AcDbArc
50
179.938522199
51
269.938522199
0
CIRCLE
5
101
100
AcDbEntity
8
IV_INTERIOR_PROFILES
6
ByLayer
62
256
370
-1
100
AcDbCircle
10
14.5522055306
20
16.5934073222
40
0.055
0
CIRCLE
5
102
100
AcDbEntity
8
IV_INTERIOR_PROFILES
6
ByLayer
62
256
370
-1
100
AcDbCircle
10
14.1195995944
20
17.0269426197
40
0.055
0
CIRCLE
5
103
100
AcDbEntity
8
IV_INTERIOR_PROFILES
6
ByLayer
62
256
370
-1
100
AcDbCircle
10
14.1186702331
20
16.160801386
40
0.055
0
CIRCLE
5
104
100
AcDbEntity
8
IV_INTERIOR_PROFILES
6
ByLayer
62
256
370
-1
100
AcDbCircle
10
13.6860642969
20
16.5943366835
40
0.055
0
CIRCLE
5
105
100
AcDbEntity
8
IV_INTERIOR_PROFILES
6
ByLayer
62
256
370
-1
100
AcDbCircle
10
15.5544067996
20
18.7104434253
40
0.125
0
CIRCLE
5
106
100
AcDbEntity
8
IV_INTERIOR_PROFILES
6
ByLayer
62
256
370
-1
100
AcDbCircle
10
14.5544073753
20
18.7115164152
40
0.125
0
CIRCLE
5
107
100
AcDbEntity
8
IV_INTERIOR_PROFILES
6
ByLayer
62
256
370
-1
100
AcDbCircle
10
13.6884078738
20
18.7124456244
40
0.125
0
CIRCLE
5
108
100
AcDbEntity
8
IV_INTERIOR_PROFILES
6
ByLayer
62
256
370
-1
100
AcDbCircle
10
12.6884084494
20
18.7135186142
40
0.125
0
ARC
5
109
100
AcDbEntity
8
IV_OUTER_PROFILE
6
ByLayer
62
256
370
-1
100
AcDbCircle
10
15.6115408905
20
18.8353821929
40
0.375
100
AcDbArc
50
359.938522199
51
89.9385221985
0
LINE
5
10A
100
AcDbEntity
8
IV_OUTER_PROFILE
6
ByLayer
62
256
370
-1
100
AcDbLine
10
15.6119432617
20
19.2103819771
11
12.6319449772
21
19.2135794868
0
LINE
5
10B
100
AcDbEntity
8
IV_OUTER_PROFILE
6
ByLayer
62
256
370
-1
100
AcDbLine
10
15.9860685936
20
18.3950122227
11
15.9865406747
21
18.8349798218
0
ARC
5
10C
100
AcDbEntity
8
IV_OUTER_PROFILE
6
ByLayer
62
256
370
-1
100
AcDbCircle
10
15.6110688095
20
18.3954145939
40
0.375
100
AcDbArc
50
307.413302627
51
359.938522199
0
LINE
5
10D
100
AcDbEntity
8
IV_OUTER_PROFILE
6
ByLayer
62
256
370
-1
100
AcDbLine
10
15.0149495413
20
17.4672981386
11
15.8389039093
21
18.0975620007
0
ARC
5
10E
100
AcDbEntity
8
IV_OUTER_PROFILE
6
ByLayer
62
256
370
-1
100
AcDbCircle
10
15.2427846412
20
17.1694455454
40
0.375
100
AcDbArc
50
127.413302627
51
179.938522199
0
LINE
5
10F
100
AcDbEntity
8
IV_OUTER_PROFILE
6
ByLayer
62
256
370
-1
100
AcDbLine
10
14.8667234765
20
16.1806680353
11
14.8677848571
21
17.1698479166
0
ARC
5
110
100
AcDbEntity
8
IV_OUTER_PROFILE
6
ByLayer
62
256
370
-1
100
AcDbCircle
10
14.4917236924
20
16.1810704064
40
0.375
100
AcDbArc
50
269.938522199
51
359.938522199
0
LINE
5
111
100
AcDbEntity
8
IV_OUTER_PROFILE
6
ByLayer
62
256
370
-1
100
AcDbLine
10
13.7452587585
20
15.8068711403
11
14.4913213212
21
15.8060706223
0
ARC
5
112
100
AcDbEntity
8
IV_OUTER_PROFILE
6
ByLayer
62
256
370
-1
100
AcDbCircle
10
13.7456611297
20
16.1818709245
40
0.375
100
AcDbArc
50
179.938522199
51
269.938522199
0
LINE
5
113
100
AcDbEntity
8
IV_OUTER_PROFILE
6
ByLayer
62
256
370
-1
100
AcDbLine
10
13.3717227262
20
17.171453177
11
13.3706613456
21
16.1822732957
0
ARC
5
114
100
AcDbEntity
8
IV_OUTER_PROFILE
6
ByLayer
62
256
370
-1
100
AcDbCircle
10
12.996722942
20
17.1718555482
40
0.375
100
AcDbArc
50
359.938522199
51
52.4637417705
0
LINE
5
115
100
AcDbEntity
8
IV_OUTER_PROFILE
6
ByLayer
62
256
370
-1
100
AcDbLine
10
12.4025967644
20
18.1012491255
11
13.2251967025
21
17.4692185264
0
ARC
5
116
100
AcDbEntity
8
IV_OUTER_PROFILE
6
ByLayer
62
256
370
-1
100
AcDbCircle
10
12.6310705249
20
18.3986121036
40
0.375
100
AcDbArc
50
179.938522199
51
232.46374177
0
LINE
5
117
100
AcDbEntity
8
IV_OUTER_PROFILE
6
ByLayer
62
256
370
-1
100
AcDbLine
10
12.2565428218
20
18.8389820739
11
12.2560707408
21
18.3990144748
0
ARC
5
118
100
AcDbEntity
8
IV_OUTER_PROFILE
6
ByLayer
62
256
370
-1
100
AcDbCircle
10
12.631542606
20
18.8385797027
40
0.375
100
AcDbArc
50
89.9385221985
51
179.938522199
0
CIRCLE
5
119
100
AcDbEntity
8
IV_INTERIOR_PROFILES
6
ByLayer
62
256
370
-1
100
AcDbCircle
10
20.0148730569
20
15.8607439266
40
0.100393700787
0
CIRCLE
5
11A
100
AcDbEntity
8
IV_INTERIOR_PROFILES
6
ByLayer
62
256
370
-1
100
AcDbCircle
10
20.4085736176
20
15.8611663635
40
0.100393700787
0
CIRCLE
5
11B
100
AcDbEntity
8
IV_INTERIOR_PROFILES
6
ByLayer
62
256
370
-1
100
AcDbCircle
10
20.4089960546
20
15.4674658027
40
0.100393700787
0
CIRCLE
5
11C
100
AcDbEntity
8
IV_INTERIOR_PROFILES
6
ByLayer
62
256
370
-1
100
AcDbCircle
10
20.0152954938
20
15.4670433658
40
0.100393700787
0
CIRCLE
5
11D
100
AcDbEntity
8
IV_INTERIOR_PROFILES
6
ByLayer
62
256
370
-1
100
AcDbCircle
10
19.6215949331
20
15.4666209288
40
0.100393700787
0
CIRCLE
5
11E
100
AcDbEntity
8
IV_INTERIOR_PROFILES
6
ByLayer
62
256
370
-1
100
AcDbCircle
10
19.6211724961
20
15.8603214896
40
0.100393700787
0
CIRCLE
5
11F
100
AcDbEntity
8
IV_INTERIOR_PROFILES
6
ByLayer
62
256
370
-1
100
AcDbCircle
10
19.2274719353
20
15.8598990527
40
0.100393700787
0
CIRCLE
5
120
100
AcDbEntity
8
IV_INTERIOR_PROFILES
6
ByLayer
62
256
370
-1
100
AcDbCircle
10
19.2278943723
20
15.4661984919
40
0.100393700787
0
CIRCLE
5
121
100
AcDbEntity
8
IV_INTERIOR_PROFILES
6
ByLayer
62
256
370
-1
100
AcDbCircle
10
21.2529102447
20
14.1022287959
40
0.125
0
CIRCLE
5
122
100
AcDbEntity
8
IV_INTERIOR_PROFILES
6
ByLayer
62
256
370
-1
100
AcDbCircle
10
20.2529108204
20
14.1011558061
40
0.125
0
CIRCLE
5
123
100
AcDbEntity
8
IV_INTERIOR_PROFILES
6
ByLayer
62
256
370
-1
100
AcDbCircle
10
19.3869113189
20
14.1002265969
40
0.125
0
CIRCLE
5
124
100
AcDbEntity
8
IV_INTERIOR_PROFILES
6
ByLayer
62
256
370
-1
100
AcDbCircle
10
18.3869118946
20
14.099153607
40
0.125
0
ARC
5
125
100
AcDbEntity
8
IV_OUTER_PROFILE
6
ByLayer
62
256
370
-1
100
AcDbCircle
10
21.3082130715
20
15.6839819592
40
0.375
100
AcDbArc
50
0.0614778014605
51
90.0614778015
0
LINE
5
126
100
AcDbEntity
8
IV_OUTER_PROFILE
6
ByLayer
62
256
370
-1
100
AcDbLine
10
21.3078107003
20
16.0589817433
11
18.3278124157
21
16.0557842336
0
LINE
5
127
100
AcDbEntity
8
IV_OUTER_PROFILE
6
ByLayer
62
256
370
-1
100
AcDbLine
10
21.6850441198
20
13.9776923995
11
21.6832128556
21
15.6843843304
0
ARC
5
128
100
AcDbEntity
8
IV_OUTER_PROFILE
6
ByLayer
62
256
370
-1
100
AcDbCircle
10
21.3100443356
20
13.9772900283
40
0.375
100
AcDbArc
50
270.061477801
51
0.0614778014605
0
LINE
5
129
100
AcDbEntity
8
IV_OUTER_PROFILE
6
ByLayer
62
256
370
-1
100
AcDbLine
10
18.3304484223
20
13.5990927344
11
21.3104467068
21
13.6022902442
0
ARC
5
12A
100
AcDbEntity
8
IV_OUTER_PROFILE
6
ByLayer
62
256
370
-1
100
AcDbCircle
10
18.3300460511
20
13.9740925185
40
0.375
100
AcDbArc
50
180.061477801
51
270.061477801
0
LINE
5
12B
100
AcDbEntity
8
IV_OUTER_PROFILE
6
ByLayer
62
256
370
-1
100
AcDbLine
10
17.9532150028
20
15.6803820783
11
17.955046267
21
13.9736901474
0
ARC
5
12C
100
AcDbEntity
8
IV_OUTER_PROFILE
6
ByLayer
62
256
370
-1
100
AcDbCircle
10
18.3282147869
20
15.6807844495
40
0.375
100
AcDbArc
50
90.0614778015
51
180.061477801
0
CIRCLE
5
12D
100
AcDbEntity
8
IV_INTERIOR_PROFILES
6
ByLayer
62
256
370
-1
100
AcDbCircle
10
18.9912232436
20
18.7468677056
40
0.100393700787
0
CIRCLE
5
12E
100
AcDbEntity
8
IV_INTERIOR_PROFILES
6
ByLayer
62
256
370
-1
100
AcDbCircle
10
19.3849238044
20
18.7472901426
40
0.100393700787
0
CIRCLE
5
12F
100
AcDbEntity
8
IV_INTERIOR_PROFILES
6
ByLayer
62
256
370
-1
100
AcDbCircle
10
19.3853462413
20
18.3535895818
40
0.100393700787
0
CIRCLE
5
130
100
AcDbEntity
8
IV_INTERIOR_PROFILES
6
ByLayer
62
256
370
-1
100
AcDbCircle
10
18.9916456806
20
18.3531671449
40
0.100393700787
0
CIRCLE
5
131
100
AcDbEntity
8
IV_INTERIOR_PROFILES
6
ByLayer
62
256
370
-1
100
AcDbCircle
10
18.5979451198
20
18.3527447079
40
0.100393700787
0
CIRCLE
5
132
100
AcDbEntity
8
IV_INTERIOR_PROFILES
6
ByLayer
62
256
370
-1
100
AcDbCircle
10
18.5975226828
20
18.7464452687
40
0.100393700787
0
CIRCLE
5
133
100
AcDbEntity
8
IV_INTERIOR_PROFILES
6
ByLayer
62
256
370
-1
100
AcDbCircle
10
18.2038221221
20
18.7460228317
40
0.100393700787
0
CIRCLE
5
134
100
AcDbEntity
8
IV_INTERIOR_PROFILES
6
ByLayer
62
256
370
-1
100
AcDbCircle
10
18.204244559
20
18.352322271
40
0.100393700787
0
CIRCLE
5
135
100
AcDbEntity
8
IV_INTERIOR_PROFILES
6
ByLayer
62
256
370
-1
100
AcDbCircle
10
20.2292604315
20
16.988352575
40
0.125
0
CIRCLE
5
136
100
AcDbEntity
8
IV_INTERIOR_PROFILES
6
ByLayer
62
256
370
-1
100
AcDbCircle
10
19.2292610071
20
16.9872795851
40
0.125
0
CIRCLE
5
137
100
AcDbEntity
8
IV_INTERIOR_PROFILES
6
ByLayer
62
256
370
-1
100
AcDbCircle
10
18.3632615056
20
16.9863503759
40
0.125
0
CIRCLE
5
138
100
AcDbEntity
8
IV_INTERIOR_PROFILES
6
ByLayer
62
256
370
-1
100
AcDbCircle
10
17.3632620813
20
16.9852773861
40
0.125
0
ARC
5
139
100
AcDbEntity
8
IV_OUTER_PROFILE
6
ByLayer
62
256
370
-1
100
AcDbCircle
10
20.2845632582
20
18.5701057383
40
0.375
100
AcDbArc
50
0.0614778014605
51
90.0614778015
0
LINE
5
13A
100
AcDbEntity
8
IV_OUTER_PROFILE
6
ByLayer
62
256
370
-1
100
AcDbLine
10
20.284160887
20
18.9451055224
11
17.3041626025
21
18.9419080127
0
LINE
5
13B
100
AcDbEntity
8
IV_OUTER_PROFILE
6
ByLayer
62
256
370
-1
100
AcDbLine
10
20.6613943065
20
16.8638161785
11
20.6595630424
21
18.5705081095
0
ARC
5
13C
100
AcDbEntity
8
IV_OUTER_PROFILE
6
ByLayer
62
256
370
-1
100
AcDbCircle
10
20.2863945224
20
16.8634138073
40
0.375
100
AcDbArc
50
270.061477801
51
0.0614778014605
0
LINE
5
13D
100
AcDbEntity
8
IV_OUTER_PROFILE
6
ByLayer
62
256
370
-1
100
AcDbLine
10
17.306798609
20
16.4852165135
11
20.2867968936
21
16.4884140232
0
ARC
5
13E
100
AcDbEntity
8
IV_OUTER_PROFILE
6
ByLayer
62
256
370
-1
100
AcDbCircle
10
17.3063962378
20
16.8602162976
40
0.375
100
AcDbArc
50
180.061477801
51
270.061477801
0
LINE
5
13F
100
AcDbEntity
8
IV_OUTER_PROFILE
6
ByLayer
62
256
370
-1
100
AcDbLine
10
16.9295651895
20
18.5665058573
11
16.9313964537
21
16.8598139264
0
ARC
5
140
100
AcDbEntity
8
IV_OUTER_PROFILE
6
ByLayer
62
256
370
-1
100
AcDbCircle
10
17.3045649737
20
18.5669082285
40
0.375
100
AcDbArc
50
90.0614778015
51
180.061477801
0
ENDSEC
0
SECTION
2
OBJECTS
0
DICTIONARY
5
C
330
0
100
AcDbDictionary
281
1
3
ACAD_GROUP
350
D
0
DICTIONARY
5
D
330
C
100
AcDbDictionary
281
1
0
ENDSEC
0
EOF
